<svg width="65" height="64" viewBox="0 0 65 64" fill="none" xmlns="http://www.w3.org/2000/svg">
<g clip-path="url(#clip0_4_2219)">
<g clip-path="url(#clip1_4_2219)">
<path d="M56.2714 0H0.499969V34.6641H56.2714V0Z" fill="url(#paint0_linear_4_2219)"/>
<path fill-rule="evenodd" clip-rule="evenodd" d="M17.3513 17.884C16.7777 17.1904 16.4325 16.2999 16.4325 15.3301V12.666C16.4325 10.8239 17.9181 9.33203 19.7524 9.33203H21.0864C22.9207 9.33203 24.4063 10.8239 24.4063 12.666V15.3301C24.4063 16.2999 24.0611 17.1904 23.4875 17.884L29.0451 20.6746V23.3387C29.0451 24.45 28.1507 25.333 27.0592 25.333H13.7796C12.6729 25.333 11.7937 24.4348 11.7937 23.3387V20.6746L17.3513 17.884Z" fill="url(#paint1_linear_4_2219)"/>
<path d="M44.9776 21.9981C43.5678 21.9981 42.446 22.5461 41.6577 23.4443V9.33206C41.6577 7.12464 39.8689 5.32826 37.6708 5.32826H37.0038C36.2761 5.32826 35.6698 5.92198 35.6698 6.66793V3.33397C35.6698 1.49191 34.1841 0 32.3498 0C30.5156 0 29.0299 1.49191 29.0299 3.33397V7.33777C29.0299 6.60704 28.4387 5.9981 27.6959 5.9981H27.0289C24.8308 5.9981 23.042 7.79448 23.042 10.0019V16.6698C23.042 15.9391 22.4508 15.3302 21.708 15.3302H21.0409C18.8428 15.3302 17.054 17.1265 17.054 19.334V41.3016C17.054 42.1998 17.2056 43.098 17.5088 43.9505L20.6013 54.7136C20.9045 55.5661 21.0561 56.4491 21.0561 57.3625V64H38.9745V55.0942C38.9745 53.5262 39.4444 51.9886 40.3085 50.6793C40.3085 50.6793 40.3085 50.6793 40.3085 50.6641L44.9321 42.7022C45.8114 41.393 46.2662 39.8401 46.2662 38.2569V23.3378C46.2662 22.607 45.675 21.9981 44.9321 21.9981H44.9776Z" fill="url(#paint2_linear_4_2219)"/>
<path d="M45.0231 21.9986C42.0519 21.9682 40.3237 24.3735 40.3237 27.3269V34.6647C33.1684 35.8673 29.6969 41.3326 29.5757 45.58C29.4847 48.4572 30.364 51.2431 32.9865 52.4154L39.0048 55.0795C39.0048 53.5115 39.4748 51.9739 40.3388 50.6646C40.3388 50.6646 40.3388 50.6647 40.3388 50.6494L44.9625 42.6875C45.8417 41.3783 46.2965 39.8255 46.2965 38.2422V23.3231C46.2965 22.6076 45.7356 21.9986 45.0231 21.9834V21.9986Z" fill="url(#paint3_linear_4_2219)"/>
</g>
</g>
<defs>
<linearGradient id="paint0_linear_4_2219" x1="-15.1" y1="-16.8" x2="51.7" y2="39.6" gradientUnits="userSpaceOnUse">
<stop stop-color="#A5CCE0"/>
<stop offset="1" stop-color="#A5CCE0" stop-opacity="0"/>
</linearGradient>
<linearGradient id="paint1_linear_4_2219" x1="28.9469" y1="26.1331" x2="8.26094" y2="14.3949" gradientUnits="userSpaceOnUse">
<stop stop-color="#A5CCE0"/>
<stop offset="1" stop-color="#A5CCE0" stop-opacity="0"/>
</linearGradient>
<linearGradient id="paint2_linear_4_2219" x1="46.1" y1="67.2" x2="2.31981" y2="56.6826" gradientUnits="userSpaceOnUse">
<stop stop-color="#A5CCE0"/>
<stop offset="1" stop-color="#A5CCE0" stop-opacity="0"/>
</linearGradient>
<linearGradient id="paint3_linear_4_2219" x1="24.8906" y1="5.94335" x2="56.9521" y2="14.4469" gradientUnits="userSpaceOnUse">
<stop stop-color="#A5CCE0"/>
<stop offset="1" stop-color="#A5CCE0" stop-opacity="0"/>
</linearGradient>
<clipPath id="clip0_4_2219">
<rect width="64" height="64" fill="white" transform="translate(0.5)"/>
</clipPath>
<clipPath id="clip1_4_2219">
<rect width="55.7714" height="64" fill="white" transform="translate(0.499969)"/>
</clipPath>
</defs>
</svg>
