<svg width="65" height="64" viewBox="0 0 65 64" fill="none" xmlns="http://www.w3.org/2000/svg">
<g clip-path="url(#clip0_367_321)">
<path d="M57.5092 55.1996H2.3567C2.21551 55.1996 2.1 55.0841 2.1 54.9428C2.1 54.8016 2.21551 54.686 2.3567 54.686H57.5092C60.1918 54.686 62.3866 52.5033 62.3866 49.807C62.3866 47.1107 60.2046 44.928 57.5092 44.928H20.313C17.3481 44.928 14.9223 42.5142 14.9223 39.5354C14.9223 36.5566 17.3353 34.1428 20.313 34.1428H43.4034C46.086 34.1428 48.2808 31.9601 48.2808 29.2638C48.2808 26.5675 46.0988 24.3848 43.4034 24.3848H13.8955C10.9306 24.3848 8.50473 21.971 8.50473 18.9922C8.50473 16.0134 10.9177 13.5996 13.8955 13.5996H62.6305C62.7716 13.5996 62.8872 13.7152 62.8872 13.8564C62.8872 13.9976 62.7716 14.1132 62.6305 14.1132H13.8955C11.2129 14.1132 9.01813 16.2959 9.01813 18.9922C9.01813 21.6885 11.2001 23.8712 13.8955 23.8712H43.3906C46.3555 23.8712 48.7814 26.285 48.7814 29.2638C48.7814 32.2426 46.3684 34.6564 43.3906 34.6564H20.313C17.6305 34.6564 15.4357 36.8391 15.4357 39.5354C15.4357 42.2317 17.6177 44.4144 20.313 44.4144H57.5092C60.4742 44.4144 62.9 46.8283 62.9 49.807C62.9 52.7858 60.487 55.1996 57.5092 55.1996Z" fill="#A5CCE0"/>
<path d="M59.1759 17.6004C59.1069 17.6004 59.0379 17.5737 58.9828 17.5204C58.8724 17.4137 58.8724 17.2537 58.9828 17.1471L62.2379 14.0004L58.9828 10.8537C58.8724 10.7471 58.8724 10.5871 58.9828 10.4804C59.0931 10.3737 59.2586 10.3737 59.369 10.4804L62.8172 13.8137C62.9276 13.9204 62.9276 14.0804 62.8172 14.1871L59.369 17.5204C59.369 17.5204 59.2448 17.6004 59.1759 17.6004Z" fill="#A5CCE0"/>
<path d="M42.1013 27.6287C49.5103 27.6287 55.5164 21.6227 55.5164 14.2138C55.5164 6.80491 49.5103 0.798828 42.1013 0.798828C34.6924 0.798828 28.6863 6.80491 28.6863 14.2138C28.6863 21.6227 34.6924 27.6287 42.1013 27.6287Z" fill="url(#paint0_linear_367_321)"/>
<path d="M15.9293 55.145L0.5 29.6445H31.3586L15.9293 55.145Z" fill="url(#paint1_linear_367_321)"/>
<path d="M58.8734 38.3721H34.7156V62.5297H58.8734V38.3721Z" fill="url(#paint2_linear_367_321)"/>
</g>
<defs>
<linearGradient id="paint0_linear_367_321" x1="21.1816" y1="-12.2043" x2="64.34" y2="10.4442" gradientUnits="userSpaceOnUse">
<stop stop-color="#A5CCE0"/>
<stop offset="1" stop-color="#A5CCE0" stop-opacity="0"/>
</linearGradient>
<linearGradient id="paint1_linear_367_321" x1="-8.13155" y1="17.2857" x2="36.9835" y2="45.9354" gradientUnits="userSpaceOnUse">
<stop stop-color="#A5CCE0"/>
<stop offset="1" stop-color="#A5CCE0" stop-opacity="0"/>
</linearGradient>
<linearGradient id="paint2_linear_367_321" x1="27.9584" y1="26.664" x2="66.8182" y2="47.0568" gradientUnits="userSpaceOnUse">
<stop stop-color="#A5CCE0"/>
<stop offset="1" stop-color="#A5CCE0" stop-opacity="0"/>
</linearGradient>
<clipPath id="clip0_367_321">
<rect width="64" height="64" fill="white" transform="translate(0.5)"/>
</clipPath>
</defs>
</svg>
