<svg width="65" height="64" viewBox="0 0 65 64" fill="none" xmlns="http://www.w3.org/2000/svg">
<g clip-path="url(#clip0_367_275)">
<path d="M29.0636 3.55664C13.2244 3.55664 0.396095 16.3848 0.396095 32.2238C0.396095 48.0629 13.2244 60.891 29.0636 60.891C44.9027 60.891 57.731 48.0629 57.731 32.2238C57.731 16.3848 44.8899 3.55664 29.0636 3.55664ZM29.0636 38.8888C25.3836 38.8888 22.3985 35.9037 22.3985 32.2238C22.3985 28.5439 25.3836 25.5588 29.0636 25.5588C32.7435 25.5588 35.7286 28.5439 35.7286 32.2238C35.7286 35.9037 32.7435 38.8888 29.0636 38.8888Z" fill="url(#paint0_linear_367_275)"/>
<path d="M29.0636 10.8906C17.2775 10.8906 7.73027 20.4378 7.73027 32.2238C7.73027 44.0097 17.2775 53.5569 29.0636 53.5569C40.8497 53.5569 50.3969 44.0097 50.3969 32.2238C50.3969 20.4378 40.8497 10.8906 29.0636 10.8906ZM29.0636 46.2228C21.3306 46.2228 15.0644 39.9567 15.0644 32.2238C15.0644 24.4908 21.3306 18.2247 29.0636 18.2247C36.7966 18.2247 43.0628 24.4908 43.0628 32.2238C43.0628 39.9567 36.7966 46.2228 29.0636 46.2228Z" fill="url(#paint1_linear_367_275)"/>
<path d="M29.0636 18.2256C21.3306 18.2256 15.0645 24.4917 15.0645 32.2246C15.0645 39.9576 21.3306 46.2237 29.0636 46.2237C36.7967 46.2237 43.0628 39.9576 43.0628 32.2246C43.0628 24.4917 36.7967 18.2256 29.0636 18.2256ZM29.0636 38.8896C25.3837 38.8896 22.3986 35.9045 22.3986 32.2246C22.3986 28.5447 25.3837 25.5597 29.0636 25.5597C32.7436 25.5597 35.7287 28.5447 35.7287 32.2246C35.7287 35.9045 32.7436 38.8896 29.0636 38.8896Z" fill="url(#paint2_linear_367_275)"/>
<path d="M29.0636 37.5632C32.0127 37.5632 34.4034 35.1726 34.4034 32.2235C34.4034 29.2745 32.0127 26.8838 29.0636 26.8838C26.1145 26.8838 23.7238 29.2745 23.7238 32.2235C23.7238 35.1726 26.1145 37.5632 29.0636 37.5632Z" fill="url(#paint3_linear_367_275)"/>
<g opacity="0.7">
<path d="M63.727 32.4945H29.0636C28.922 32.4945 28.7934 32.3787 28.7934 32.2243C28.7934 32.0699 28.9092 31.9541 29.0636 31.9541H63.727C63.8685 31.9541 63.9972 32.0699 63.9972 32.2243C63.9972 32.3787 63.8814 32.4945 63.727 32.4945Z" fill="#A5CCE0"/>
</g>
<path d="M64.396 34.8864H55.0675L52.3912 32.223L55.0675 29.5596H64.396L61.7326 32.223L64.396 34.8864Z" fill="url(#paint4_linear_367_275)"/>
</g>
<defs>
<linearGradient id="paint0_linear_367_275" x1="-15.6412" y1="-24.2305" x2="76.5868" y2="24.1687" gradientUnits="userSpaceOnUse">
<stop stop-color="#A5CCE0"/>
<stop offset="1" stop-color="#A5CCE0" stop-opacity="0"/>
</linearGradient>
<linearGradient id="paint1_linear_367_275" x1="33.3001" y1="5.2" x2="47.5479" y2="56.6658" gradientUnits="userSpaceOnUse">
<stop stop-color="#A5CCE0" stop-opacity="0"/>
<stop offset="0.869933" stop-color="#A5CCE0"/>
</linearGradient>
<linearGradient id="paint2_linear_367_275" x1="41.7002" y1="14.8006" x2="38.096" y2="50.9547" gradientUnits="userSpaceOnUse">
<stop stop-color="#A5CCE0"/>
<stop offset="1" stop-color="#A5CCE0" stop-opacity="0"/>
</linearGradient>
<linearGradient id="paint3_linear_367_275" x1="20.7366" y1="21.708" x2="37.9155" y2="30.7231" gradientUnits="userSpaceOnUse">
<stop stop-color="#A5CCE0"/>
<stop offset="1" stop-color="#A5CCE0" stop-opacity="0"/>
</linearGradient>
<linearGradient id="paint4_linear_367_275" x1="49.0333" y1="26.9779" x2="59.301" y2="39.121" gradientUnits="userSpaceOnUse">
<stop stop-color="#A5CCE0"/>
<stop offset="1" stop-color="#A5CCE0" stop-opacity="0"/>
</linearGradient>
<clipPath id="clip0_367_275">
<rect width="64" height="64" fill="white" transform="translate(0.5)"/>
</clipPath>
</defs>
</svg>
