<svg width="65" height="64" viewBox="0 0 65 64" fill="none" xmlns="http://www.w3.org/2000/svg">
<g clip-path="url(#clip0_367_414)">
<path d="M2.30084 50.0209C2.30084 50.0209 2.16255 49.9933 2.10723 49.938C1.9966 49.8273 1.9966 49.6614 2.10723 49.5646L23.6525 28.0192H42.432L63.8251 6.62594C63.9357 6.51531 64.1017 6.51531 64.1985 6.62594C64.3091 6.73657 64.3091 6.90252 64.1985 6.99932L42.6532 28.5447H23.8737L2.49444 49.9518C2.49444 49.9518 2.36998 50.0348 2.30084 50.0348V50.0209Z" fill="#A5CCE0"/>
<g opacity="0.7">
<path d="M64.0325 11.7828C63.8804 11.7828 63.7698 11.6584 63.7698 11.5201V7.09483H59.3446C59.1924 7.09483 59.0818 6.97037 59.0818 6.83208C59.0818 6.6938 59.2063 6.56934 59.3446 6.56934H64.0463C64.1985 6.56934 64.3091 6.6938 64.3091 6.83208V11.5339C64.3091 11.686 64.1846 11.7966 64.0463 11.7966L64.0325 11.7828Z" fill="#A5CCE0"/>
</g>
<path d="M64.0325 33.9241C64.0325 33.9241 63.8942 33.8964 63.8389 33.8411L37.7578 7.75987H31.2721L23.7769 15.2551L16.2817 7.75987H0.959433C0.821145 7.75987 0.696686 7.63541 0.696686 7.49712C0.696686 7.35883 0.821145 7.23438 0.959433 7.23438H16.503L23.7769 14.5084L31.0509 7.23438H37.9791L64.2261 33.4816C64.3367 33.5922 64.3367 33.7581 64.2261 33.8549C64.1708 33.9103 64.1016 33.9379 64.0325 33.9379V33.9241Z" fill="#A5CCE0"/>
<g opacity="0.7">
<path d="M64.0325 33.9244H59.3307C59.1786 33.9244 59.068 33.8 59.068 33.6617C59.068 33.5234 59.1925 33.3989 59.3307 33.3989H63.7559V28.9737C63.7559 28.8216 63.8804 28.7109 64.0187 28.7109C64.157 28.7109 64.2814 28.8354 64.2814 28.9737V33.6755C64.2814 33.8276 64.157 33.9382 64.0187 33.9382L64.0325 33.9244Z" fill="#A5CCE0"/>
</g>
<path d="M21.0942 54.1696L0.779689 33.8411C0.669059 33.7305 0.669059 33.5645 0.779689 33.4677C0.890319 33.3571 1.05626 33.3571 1.15307 33.4677L21.0803 53.3951L31.1477 42.6639L39.9843 51.5006H64.0187C64.1708 51.5006 64.2815 51.625 64.2815 51.7633C64.2815 51.9016 64.157 52.0261 64.0187 52.0261H39.7492L31.1477 43.4245L21.0803 54.1557L21.0942 54.1696Z" fill="#A5CCE0"/>
<g opacity="0.7">
<path d="M60.6721 55.4006C60.6721 55.4006 60.5338 55.373 60.4785 55.3177C60.3679 55.207 60.3679 55.0411 60.4785 54.9443L63.6453 51.7775L60.4785 48.6107C60.3679 48.5 60.3679 48.3341 60.4785 48.2373C60.5891 48.1266 60.7551 48.1266 60.8519 48.2373L64.2123 51.5977C64.3229 51.7083 64.3229 51.8743 64.2123 51.9711L60.8519 55.3315C60.8519 55.3315 60.7274 55.4145 60.6583 55.4145L60.6721 55.4006Z" fill="#A5CCE0"/>
</g>
<path d="M31.1477 0.112305H17.7338V63.8496H31.1477V0.112305Z" fill="url(#paint0_linear_367_414)"/>
<path d="M16.3924 0.112305H2.97852V63.8496H16.3924V0.112305Z" fill="url(#paint1_linear_367_414)"/>
<path d="M60.6721 0.112305H47.2582V63.8496H60.6721V0.112305Z" fill="url(#paint2_linear_367_414)"/>
<path d="M45.9169 0.112305H32.5029V63.8496H45.9169V0.112305Z" fill="url(#paint3_linear_367_414)"/>
<g opacity="0.7">
<path d="M64.0325 64.1134H0.959433C0.821145 64.1134 0.696686 64.0028 0.696686 63.8506C0.696686 63.6985 0.821145 63.5879 0.959433 63.5879H64.0187C64.1708 63.5879 64.2814 63.7123 64.2814 63.8506C64.2814 63.9889 64.157 64.1134 64.0187 64.1134H64.0325Z" fill="#A5CCE0"/>
</g>
</g>
<defs>
<linearGradient id="paint0_linear_367_414" x1="23.1368" y1="123.199" x2="23.1368" y2="-11.201" gradientUnits="userSpaceOnUse">
<stop stop-color="#A5CCE0"/>
<stop offset="1" stop-color="#A5CCE0" stop-opacity="0"/>
</linearGradient>
<linearGradient id="paint1_linear_367_414" x1="8.3815" y1="73.599" x2="8.3815" y2="-18.801" gradientUnits="userSpaceOnUse">
<stop stop-color="#A5CCE0"/>
<stop offset="1" stop-color="#A5CCE0" stop-opacity="0"/>
</linearGradient>
<linearGradient id="paint2_linear_367_414" x1="52.6612" y1="123.199" x2="52.6612" y2="-11.201" gradientUnits="userSpaceOnUse">
<stop stop-color="#A5CCE0"/>
<stop offset="1" stop-color="#A5CCE0" stop-opacity="0"/>
</linearGradient>
<linearGradient id="paint3_linear_367_414" x1="37.9059" y1="73.599" x2="37.9059" y2="-18.801" gradientUnits="userSpaceOnUse">
<stop stop-color="#A5CCE0"/>
<stop offset="1" stop-color="#A5CCE0" stop-opacity="0"/>
</linearGradient>
<clipPath id="clip0_367_414">
<rect width="64" height="64" fill="white" transform="translate(0.5)"/>
</clipPath>
</defs>
</svg>
