<svg width="65" height="64" viewBox="0 0 65 64" fill="none" xmlns="http://www.w3.org/2000/svg">
<g clip-path="url(#clip0_367_591)">
<path d="M32.8061 56.3599C46.2283 56.3599 57.1092 45.479 57.1092 32.0569C57.1092 18.6347 46.2283 7.75391 32.8061 7.75391C19.3838 7.75391 8.50293 18.6347 8.50293 32.0569C8.50293 45.479 19.3838 56.3599 32.8061 56.3599Z" fill="url(#paint0_linear_367_591)"/>
<path d="M34.8355 30.7031L41.5878 34.0729V36.7789C41.5878 37.9021 40.6816 38.8084 39.5583 38.8084H26.0537C24.9305 38.8084 24.0242 37.9021 24.0242 36.7789V34.0729L30.7765 30.7031H34.8228H34.8355Z" fill="url(#paint1_linear_367_591)"/>
<path d="M32.806 32.7323C30.5723 32.7323 28.7598 30.9198 28.7598 28.6861V25.9801C28.7598 24.1165 30.266 22.6104 32.1295 22.6104H33.4825C35.3461 22.6104 36.8523 24.1165 36.8523 25.9801V28.6861C36.8523 30.9198 35.0398 32.7323 32.806 32.7323Z" fill="url(#paint2_linear_367_591)"/>
<path d="M45.6341 19.4962C45.5702 19.4962 45.4937 19.4707 45.4426 19.4196C45.3405 19.3175 45.3405 19.1388 45.4426 19.0367L54.8881 9.59123C54.9903 9.48912 55.169 9.48912 55.2711 9.59123C55.3732 9.69335 55.3732 9.87205 55.2711 9.97416L45.8255 19.4196C45.8255 19.4196 45.6979 19.4962 45.6341 19.4962Z" fill="#A5CCE0"/>
<g opacity="0.7">
<path d="M55.0797 14.097C54.9266 14.097 54.8117 13.9821 54.8117 13.8289V10.0507H51.0335C50.8803 10.0507 50.7654 9.93587 50.7654 9.7827C50.7654 9.62953 50.8803 9.51465 51.0335 9.51465H55.0797C55.2329 9.51465 55.3478 9.62953 55.3478 9.7827V13.8289C55.3478 13.9821 55.2329 14.097 55.0797 14.097Z" fill="#A5CCE0"/>
</g>
<path d="M19.9779 19.4962C19.914 19.4962 19.8375 19.4707 19.7864 19.4196L10.3408 9.97416C10.2387 9.87205 10.2387 9.69335 10.3408 9.59123C10.443 9.48912 10.6217 9.48912 10.7238 9.59123L20.1693 19.0367C20.2714 19.1388 20.2714 19.3175 20.1693 19.4196C20.1183 19.4707 20.0417 19.4962 19.9779 19.4962Z" fill="#A5CCE0"/>
<g opacity="0.7">
<path d="M10.5323 14.097C10.3791 14.097 10.2643 13.9821 10.2643 13.8289V9.7827C10.2643 9.62953 10.3791 9.51465 10.5323 9.51465H14.5786C14.7317 9.51465 14.8466 9.62953 14.8466 9.7827C14.8466 9.93587 14.7317 10.0507 14.5786 10.0507H10.8004V13.8289C10.8004 13.9821 10.6855 14.097 10.5323 14.097Z" fill="#A5CCE0"/>
</g>
<path d="M55.0796 54.6105C55.0158 54.6105 54.9392 54.585 54.8881 54.5339L45.4426 45.0884C45.3405 44.9863 45.3405 44.8076 45.4426 44.7055C45.5447 44.6034 45.7234 44.6034 45.8255 44.7055L55.2711 54.151C55.3732 54.2531 55.3732 54.4318 55.2711 54.5339C55.22 54.585 55.1434 54.6105 55.0796 54.6105Z" fill="#A5CCE0"/>
<g opacity="0.7">
<path d="M55.0797 54.6107H51.0335C50.8803 54.6107 50.7654 54.4958 50.7654 54.3426C50.7654 54.1894 50.8803 54.0746 51.0335 54.0746H54.8117V50.2964C54.8117 50.1432 54.9266 50.0283 55.0797 50.0283C55.2329 50.0283 55.3478 50.1432 55.3478 50.2964V54.3426C55.3478 54.4958 55.2329 54.6107 55.0797 54.6107Z" fill="#A5CCE0"/>
</g>
<path d="M10.5323 54.6105C10.4685 54.6105 10.3919 54.585 10.3408 54.5339C10.2387 54.4318 10.2387 54.2531 10.3408 54.151L19.7864 44.7055C19.8885 44.6034 20.0672 44.6034 20.1693 44.7055C20.2714 44.8076 20.2714 44.9863 20.1693 45.0884L10.7238 54.5339C10.7238 54.5339 10.5961 54.6105 10.5323 54.6105Z" fill="#A5CCE0"/>
<g opacity="0.7">
<path d="M14.5786 54.6107H10.5323C10.3791 54.6107 10.2643 54.4958 10.2643 54.3426V50.2964C10.2643 50.1432 10.3791 50.0283 10.5323 50.0283C10.6855 50.0283 10.8004 50.1432 10.8004 50.2964V54.0746H14.5786C14.7317 54.0746 14.8466 54.1894 14.8466 54.3426C14.8466 54.4958 14.7317 54.6107 14.5786 54.6107Z" fill="#A5CCE0"/>
</g>
<path d="M32.8059 14.0962C32.6528 14.0962 32.5379 13.9814 32.5379 13.8282V0.323712C32.5379 0.170542 32.6528 0.0556641 32.8059 0.0556641C32.9591 0.0556641 33.074 0.170542 33.074 0.323712V13.8282C33.074 13.9814 32.9591 14.0962 32.8059 14.0962Z" fill="#A5CCE0"/>
<g opacity="0.7">
<path d="M35.5121 3.29776C35.4483 3.29776 35.3717 3.27223 35.3207 3.22118L32.8061 0.706636L30.2915 3.22118C30.1894 3.32329 30.0107 3.32329 29.9086 3.22118C29.8065 3.11906 29.8065 2.94037 29.9086 2.83825L32.6146 0.132249C32.7168 0.0301357 32.8955 0.0301357 32.9976 0.132249L35.7036 2.83825C35.8057 2.94037 35.8057 3.11906 35.7036 3.22118C35.6525 3.27223 35.5759 3.29776 35.5121 3.29776Z" fill="#A5CCE0"/>
</g>
<path d="M32.8061 64.0552C32.653 64.0552 32.5381 63.9404 32.5381 63.7872V50.2827C32.5381 50.1295 32.653 50.0146 32.8061 50.0146C32.9593 50.0146 33.0742 50.1295 33.0742 50.2827V63.7872C33.0742 63.9404 32.9593 64.0552 32.8061 64.0552Z" fill="#A5CCE0"/>
<g opacity="0.7">
<path d="M32.8061 64.0556C32.7423 64.0556 32.6657 64.03 32.6146 63.979L29.9086 61.273C29.8065 61.1709 29.8065 60.9922 29.9086 60.8901C30.0107 60.7879 30.1894 60.7879 30.2915 60.8901L32.8061 63.4046L35.3207 60.8901C35.4228 60.7879 35.6015 60.7879 35.7036 60.8901C35.8057 60.9922 35.8057 61.1709 35.7036 61.273L32.9976 63.979C32.9976 63.979 32.8699 64.0556 32.8061 64.0556Z" fill="#A5CCE0"/>
</g>
<path d="M64.5381 32.3242H51.0335C50.8803 32.3242 50.7654 32.2093 50.7654 32.0561C50.7654 31.903 50.8803 31.7881 51.0335 31.7881H64.5381C64.6912 31.7881 64.8061 31.903 64.8061 32.0561C64.8061 32.2093 64.6912 32.3242 64.5381 32.3242Z" fill="#A5CCE0"/>
<g opacity="0.7">
<path d="M61.8319 35.0301C61.7681 35.0301 61.6915 35.0046 61.6404 34.9536C61.5383 34.8514 61.5383 34.6727 61.6404 34.5706L64.155 32.0561L61.6404 29.5415C61.5383 29.4394 61.5383 29.2607 61.6404 29.1586C61.7426 29.0565 61.9213 29.0565 62.0234 29.1586L64.7294 31.8646C64.8315 31.9667 64.8315 32.1454 64.7294 32.2475L62.0234 34.9536C62.0234 34.9536 61.8957 35.0301 61.8319 35.0301Z" fill="#A5CCE0"/>
</g>
<path d="M14.5787 32.3242H1.0741C0.920931 32.3242 0.806053 32.2093 0.806053 32.0561C0.806053 31.903 0.920931 31.7881 1.0741 31.7881H14.5787C14.7319 31.7881 14.8467 31.903 14.8467 32.0561C14.8467 32.2093 14.7319 32.3242 14.5787 32.3242Z" fill="#A5CCE0"/>
<g opacity="0.7">
<path d="M3.78013 35.0301C3.7163 35.0301 3.63972 35.0046 3.58866 34.9536L0.882639 32.2475C0.780525 32.1454 0.780525 31.9667 0.882639 31.8646L3.58866 29.1586C3.69078 29.0565 3.86948 29.0565 3.97159 29.1586C4.0737 29.2607 4.0737 29.4394 3.97159 29.5415L1.45703 32.0561L3.97159 34.5706C4.0737 34.6727 4.0737 34.8514 3.97159 34.9536C3.92053 35.0046 3.84395 35.0301 3.78013 35.0301Z" fill="#A5CCE0"/>
</g>
</g>
<defs>
<linearGradient id="paint0_linear_367_591" x1="57.4215" y1="-11.8154" x2="43.1348" y2="71.1496" gradientUnits="userSpaceOnUse">
<stop stop-color="#A5CCE0"/>
<stop offset="1" stop-color="#A5CCE0" stop-opacity="0"/>
</linearGradient>
<linearGradient id="paint1_linear_367_591" x1="32.75" y1="42.4" x2="25.55" y2="33.6" gradientUnits="userSpaceOnUse">
<stop stop-color="#A5CCE0"/>
<stop offset="1" stop-color="#A5CCE0" stop-opacity="0"/>
</linearGradient>
<linearGradient id="paint2_linear_367_591" x1="32.75" y1="28.0002" x2="26.9444" y2="29.8578" gradientUnits="userSpaceOnUse">
<stop stop-color="#A5CCE0"/>
<stop offset="1" stop-color="#A5CCE0" stop-opacity="0"/>
</linearGradient>
<clipPath id="clip0_367_591">
<rect width="64" height="64" fill="white" transform="translate(0.75)"/>
</clipPath>
</defs>
</svg>
