<svg width="25" height="40" viewBox="0 0 25 40" fill="none" xmlns="http://www.w3.org/2000/svg">
<g clip-path="url(#clip0_23_13101)">
<path d="M8.3923 9.16693H11.2734C11.2842 9.16693 11.2948 9.1648 11.3048 9.16066C11.3147 9.15652 11.3238 9.15046 11.3314 9.14281C11.339 9.13516 11.345 9.12608 11.3491 9.11609C11.3532 9.10609 11.3554 9.09538 11.3554 9.08456V-0.0450719C11.3554 -0.0669176 11.364 -0.0878689 11.3794 -0.103316C11.3947 -0.118763 11.4156 -0.127441 11.4373 -0.127441H13.9309C13.9526 -0.127441 13.9735 -0.118763 13.9888 -0.103316C14.0042 -0.0878689 14.0128 -0.0669176 14.0128 -0.0450719V2.07649C14.0128 2.08731 14.0149 2.09802 14.0191 2.10802C14.0232 2.11801 14.0292 2.12709 14.0368 2.13474C14.0444 2.14239 14.0535 2.14845 14.0634 2.15259C14.0733 2.15673 14.084 2.15886 14.0948 2.15886L17.0312 2.14328C17.053 2.14328 17.0738 2.15196 17.0892 2.16741C17.1045 2.18285 17.1132 2.2038 17.1132 2.22565V4.68782C17.1132 4.70967 17.1045 4.73062 17.0892 4.74607C17.0738 4.76152 17.053 4.77019 17.0312 4.77019H14.1457C14.124 4.77019 14.1031 4.77887 14.0878 4.79432C14.0724 4.80977 14.0638 4.83072 14.0638 4.85256L14.0704 9.08456C14.0704 9.09538 14.0725 9.10609 14.0766 9.11609C14.0807 9.12608 14.0868 9.13516 14.0944 9.14281C14.102 9.15046 14.111 9.15652 14.121 9.16066C14.1309 9.1648 14.1416 9.16693 14.1523 9.16693H17.0312C17.042 9.16693 17.0527 9.1648 17.0626 9.16066C17.0725 9.15652 17.0816 9.15046 17.0892 9.14281C17.0968 9.13516 17.1028 9.12608 17.1069 9.11609C17.1111 9.10609 17.1132 9.09538 17.1132 9.08456L17.111 6.35525C17.111 6.3334 17.1196 6.31245 17.135 6.297C17.1503 6.28156 17.1712 6.27288 17.1929 6.27288L19.6333 6.27065C19.6551 6.27065 19.6759 6.27933 19.6913 6.29478C19.7066 6.31022 19.7153 6.33117 19.7153 6.35302V9.08456C19.7153 9.09538 19.7174 9.10609 19.7215 9.11609C19.7256 9.12608 19.7317 9.13516 19.7393 9.14281C19.7469 9.15046 19.7559 9.15652 19.7659 9.16066C19.7758 9.1648 19.7864 9.16693 19.7972 9.16693H25.3911C25.4129 9.16693 25.4337 9.17561 25.4491 9.19106C25.4645 9.20651 25.4731 9.22746 25.4731 9.2493V29.383C25.4731 29.3954 25.4703 29.4077 25.4649 29.4189C25.4596 29.4301 25.4518 29.4399 25.4421 29.4476L12.7439 39.4633C12.7294 39.4748 12.7114 39.4811 12.6929 39.4811C12.6745 39.4811 12.6565 39.4748 12.642 39.4633L-0.0185401 29.4676C-0.0282134 29.4599 -0.0360261 29.4501 -0.0413949 29.4389C-0.0467636 29.4277 -0.0495494 29.4155 -0.0495436 29.4031L-0.0517578 9.2493C-0.0517578 9.22746 -0.0431256 9.20651 -0.0277592 9.19106C-0.0123929 9.17561 0.00844876 9.16693 0.0301801 9.16693H5.57097C5.58173 9.16693 5.59239 9.1648 5.60233 9.16066C5.61227 9.15652 5.6213 9.15046 5.62891 9.14281C5.63652 9.13516 5.64255 9.12608 5.64667 9.11609C5.65079 9.10609 5.65291 9.09538 5.65291 9.08456V6.32853C5.65291 6.30669 5.66154 6.28574 5.67691 6.27029C5.69228 6.25484 5.71312 6.24616 5.73485 6.24616L8.22843 6.22613C8.25016 6.22613 8.271 6.2348 8.28637 6.25025C8.30173 6.2657 8.31036 6.28665 8.31036 6.3085V9.08456C8.31036 9.09538 8.31248 9.10609 8.3166 9.11609C8.32072 9.12608 8.32675 9.13516 8.33436 9.14281C8.34197 9.15046 8.351 9.15652 8.36095 9.16066C8.37089 9.1648 8.38154 9.16693 8.3923 9.16693ZM5.65291 22.5108V11.9497C5.65291 11.8755 5.616 11.8384 5.54218 11.8384H2.70314C2.68463 11.8384 2.6663 11.842 2.64923 11.8491C2.63215 11.8562 2.61667 11.8665 2.60369 11.8796C2.59071 11.8926 2.58048 11.9081 2.5736 11.9251C2.56672 11.9421 2.56332 11.9603 2.56362 11.9786L2.61234 25.1889C2.61234 25.2527 2.63596 25.2638 2.6832 25.2223L5.55547 22.7245C5.58601 22.698 5.61052 22.6652 5.62734 22.6283C5.64415 22.5914 5.65287 22.5513 5.65291 22.5108ZM8.31036 22.5887C8.31058 22.5985 8.31286 22.6081 8.31706 22.6169C8.32126 22.6257 8.32728 22.6336 8.33472 22.6399L11.2424 25.1065C11.2525 25.115 11.2647 25.1205 11.2778 25.1222C11.2908 25.1239 11.3041 25.1219 11.3159 25.1162C11.3278 25.1106 11.3379 25.1017 11.3449 25.0905C11.3519 25.0793 11.3555 25.0663 11.3554 25.0531V11.9074C11.3554 11.8891 11.3481 11.8715 11.3353 11.8586C11.3224 11.8456 11.3049 11.8384 11.2867 11.8384H8.37901C8.36081 11.8384 8.34335 11.8456 8.33047 11.8586C8.3176 11.8715 8.31036 11.8891 8.31036 11.9074V22.5887ZM17.0312 22.6555C17.0395 22.6482 17.0461 22.6394 17.0507 22.6294C17.0553 22.6194 17.0577 22.6086 17.0578 22.5976V11.9163C17.0578 11.8956 17.0497 11.8758 17.0351 11.8612C17.0206 11.8466 17.0009 11.8384 16.9803 11.8384H14.1457C14.1251 11.8384 14.1054 11.8466 14.0909 11.8612C14.0763 11.8758 14.0682 11.8956 14.0682 11.9163V25.0175C14.0679 25.0325 14.072 25.0474 14.08 25.0602C14.0879 25.0729 14.0994 25.0831 14.113 25.0895C14.1266 25.0958 14.1417 25.0981 14.1566 25.096C14.1714 25.0939 14.1853 25.0875 14.1966 25.0776L17.0312 22.6555ZM19.7153 22.5731C19.715 22.5836 19.717 22.594 19.7212 22.6037C19.7255 22.6133 19.7317 22.6219 19.7396 22.6288L22.6983 25.151C22.7085 25.16 22.7211 25.1658 22.7345 25.1678C22.7479 25.1697 22.7616 25.1678 22.774 25.1622C22.7864 25.1565 22.7969 25.1475 22.8042 25.136C22.8116 25.1246 22.8156 25.1112 22.8156 25.0976V11.9096C22.8156 11.8907 22.8082 11.8726 22.7949 11.8592C22.7816 11.8459 22.7636 11.8384 22.7448 11.8384H19.7861C19.7673 11.8384 19.7493 11.8459 19.736 11.8592C19.7227 11.8726 19.7153 11.8907 19.7153 11.9096V22.5731ZM10.5714 28.1497C10.579 28.143 10.585 28.1348 10.5891 28.1256C10.5933 28.1164 10.5954 28.1064 10.5954 28.0963C10.5954 28.0862 10.5933 28.0762 10.5891 28.067C10.585 28.0578 10.579 28.0495 10.5714 28.0429L7.0525 25.0375C7.03961 25.0262 7.02309 25.02 7.006 25.02C6.9889 25.02 6.97239 25.0262 6.95949 25.0375L3.07961 28.4124C3.07183 28.4193 3.06563 28.4277 3.06145 28.4373C3.05727 28.4468 3.05522 28.4571 3.05543 28.4675C3.05564 28.4779 3.05811 28.4881 3.06267 28.4974C3.06723 28.5068 3.07377 28.515 3.08182 28.5215L6.69375 31.3799C6.70674 31.3903 6.72295 31.3958 6.73954 31.3954C6.75614 31.395 6.77206 31.3887 6.78454 31.3777L10.5714 28.1497ZM22.3594 28.4881C22.3693 28.4803 22.3773 28.4705 22.3829 28.4592C22.3884 28.4479 22.3914 28.4355 22.3917 28.423C22.3919 28.4104 22.3893 28.3979 22.3841 28.3864C22.3789 28.375 22.3712 28.3649 22.3617 28.3568L18.4574 25.0286C18.4421 25.0151 18.4224 25.0077 18.402 25.0077C18.3817 25.0077 18.362 25.0151 18.3467 25.0286L14.8366 28.0295C14.8273 28.0374 14.8198 28.0473 14.8147 28.0585C14.8095 28.0696 14.8069 28.0818 14.8069 28.0941C14.8069 28.1064 14.8095 28.1185 14.8147 28.1296C14.8198 28.1408 14.8273 28.1507 14.8366 28.1586L18.5991 31.3688C18.6139 31.3814 18.6325 31.3885 18.6519 31.3889C18.6713 31.3893 18.6902 31.383 18.7054 31.371L22.3594 28.4881ZM16.4532 33.152C16.4612 33.1459 16.4677 33.1381 16.4723 33.1291C16.4768 33.1202 16.4793 33.1103 16.4795 33.1002C16.4797 33.0901 16.4777 33.0802 16.4735 33.071C16.4693 33.0619 16.4632 33.0538 16.4555 33.0474L12.7372 29.8839C12.7254 29.8742 12.7105 29.8688 12.6952 29.8688C12.6798 29.8688 12.665 29.8742 12.6531 29.8839L8.93708 33.0429C8.92937 33.0493 8.9232 33.0574 8.91904 33.0666C8.91488 33.0757 8.91282 33.0857 8.91304 33.0958C8.91325 33.1058 8.91572 33.1157 8.92027 33.1247C8.92482 33.1336 8.93132 33.1415 8.93929 33.1475L12.6575 36.0772C12.6694 36.087 12.6843 36.0923 12.6996 36.0923C12.7149 36.0923 12.7298 36.087 12.7417 36.0772L16.4532 33.152Z" fill="black"/>
</g>
<defs>
<clipPath id="clip0_23_13101">
<rect width="25" height="40" fill="white"/>
</clipPath>
</defs>
</svg>
