<svg width="146" height="32" viewBox="0 0 146 32" fill="none" xmlns="http://www.w3.org/2000/svg">
    <g clip-path="url(#clip0_2008_11478)">
    <path d="M15.9426 7.44108V5.16572H13.6673V7.44108H11.3768V5.16572H13.6673V2.89035H11.3768V0.61499H9.10146V7.44108H6.84116V5.16572H4.5658V7.44108H0V23.444L10.2467 31.3851L20.4933 23.444V7.44108H15.9426ZM18.218 9.71645V20.4604L15.9426 18.5316V9.70138H18.218V9.71645ZM5.69594 20.5659L8.33296 22.796L5.72608 24.996L2.99866 22.8864L5.68088 20.5508L5.69594 20.5659ZM14.7974 20.5659L17.5098 22.8563L14.7221 25.0111L12.1604 22.8412L14.7974 20.5659ZM13.6522 9.71645V18.5467L11.3618 20.5357V9.71645H13.6522ZM9.08639 9.71645V20.4604L6.82609 18.5467V9.71645H9.08639ZM4.55073 9.71645V18.5467L2.27536 20.5207V9.71645H4.55073ZM7.56445 26.4426L10.2165 24.1974L12.8837 26.4577L10.2316 28.5221L7.56445 26.4426Z" fill="#052E3E"/>
    <path d="M44.7089 10.7561L43.9404 12.6246C42.2979 11.8863 40.6554 11.5096 39.0129 11.5096C36.7526 11.5096 35.6225 12.052 35.6225 13.137C35.6225 13.9808 36.3458 14.4931 37.8074 14.6589L41.213 15.0658C43.865 15.3973 45.1911 16.6028 45.1911 18.7124C45.1911 21.2138 43.3075 22.4645 39.5554 22.4645C37.2348 22.4645 35.0951 22.0124 33.1211 21.1233L33.9197 19.1494C35.8033 20.0535 37.717 20.5055 39.6307 20.5055C41.8609 20.5055 42.976 19.9329 42.976 18.7877C42.976 17.8987 42.2075 17.3713 40.6705 17.1754L37.3102 16.7685C36.0444 16.6178 35.08 16.2562 34.417 15.6534C33.7389 15.0507 33.4074 14.252 33.4074 13.2726C33.4074 12.0972 33.8896 11.1931 34.8691 10.5602C35.8485 9.92735 37.2499 9.62598 39.0732 9.62598C40.8965 9.62598 42.8102 10.0027 44.6938 10.7712L44.7089 10.7561Z" fill="#052E3E"/>
    <path d="M50.4941 9.86719H52.7092V22.2235H50.4941V9.86719ZM59.3545 9.86719H62.1271L56.3257 15.5933L62.5641 22.2084H59.6107L53.4928 15.6837L59.3545 9.86719Z" fill="#052E3E"/>
    <path d="M65.8359 9.86719H68.5031L72.4209 15.2768L76.3538 9.86719H78.9306L73.5059 17.2659V22.2235H71.2908V17.2659L65.8359 9.86719Z" fill="#052E3E"/>
    <path d="M105.346 9.62598C107.546 9.62598 109.339 10.2287 110.725 11.4191C112.112 12.6096 112.82 14.1466 112.82 16.0452C112.82 17.9439 112.127 19.4809 110.725 20.6713C109.324 21.8617 107.531 22.4494 105.346 22.4494C103.161 22.4494 101.337 21.8617 99.9511 20.6713C98.5799 19.4658 97.8867 17.9288 97.8867 16.0452C97.8867 14.1616 98.5799 12.6096 99.9511 11.4191C101.337 10.2137 103.131 9.62598 105.346 9.62598ZM105.331 20.5357C106.853 20.5357 108.103 20.1137 109.083 19.285C110.062 18.4562 110.544 17.3713 110.544 16.0452C110.544 14.7192 110.062 13.6192 109.083 12.7904C108.103 11.9616 106.853 11.5397 105.331 11.5397C103.809 11.5397 102.573 11.9616 101.594 12.7904C100.629 13.6192 100.147 14.689 100.147 16.0452C100.147 17.4014 100.629 18.4713 101.594 19.3C102.558 20.1288 103.794 20.5357 105.331 20.5357Z" fill="#052E3E"/>
    <path d="M118.107 9.86719H125.371C126.802 9.86719 127.917 10.2138 128.761 10.8919C129.59 11.5699 130.012 12.4891 130.012 13.6494C130.012 14.5987 129.725 15.3823 129.153 16.0152C128.58 16.6481 127.797 17.0549 126.787 17.2207L130.584 22.2235H127.827L124.286 17.4618H120.338V15.5179H125.581C126.26 15.5179 126.802 15.3522 127.194 15.0207C127.586 14.6892 127.781 14.2371 127.781 13.6645C127.781 13.0919 127.586 12.6398 127.194 12.2932C126.802 11.9467 126.29 11.7809 125.627 11.7809H120.323V22.2235H118.107V9.86719Z" fill="#052E3E"/>
    <path d="M133.961 9.86719H145.986V11.8412H141.088V22.2235H138.873V11.8412H133.976V9.86719H133.961Z" fill="#052E3E"/>
    <path d="M83.3301 11.7959V22.2083H85.5452V17.3562H91.6329L91.6178 15.4425H85.5452V11.7959H83.3301Z" fill="#052E3E"/>
    <path d="M93.8327 9.86719H85.5449V11.811H93.8327V9.86719Z" fill="#052E3E"/>
    </g>
    <defs>
    <clipPath id="clip0_2008_11478">
    <rect width="146" height="30.7702" fill="white" transform="translate(0 0.61499)"/>
    </clipPath>
    </defs>
    </svg>
    