<svg width="18" height="14" viewBox="0 0 18 14" fill="none" xmlns="http://www.w3.org/2000/svg">
<path d="M1.99732 6.05895C6.35846 4.16757 9.25027 2.91707 10.704 2.30745C14.8463 0.588016 15.7216 0.275391 16.2687 0.275391C16.3938 0.275391 16.6751 0.306653 16.8471 0.447335C17.0034 0.572385 17.0347 0.728697 17.0659 0.853747C17.0815 0.963166 17.1128 1.2289 17.0972 1.44773C16.8783 3.80805 15.8936 9.54472 15.409 12.1864C15.2058 13.3119 14.7838 13.687 14.393 13.7183C13.5332 13.7964 12.8611 13.1399 12.0326 12.5928C10.7196 11.7331 9.96931 11.2016 8.70317 10.3575C7.23383 9.38841 8.18732 8.85695 9.03141 7.9816C9.25025 7.74713 13.0799 4.27699 13.1425 3.96437C13.1425 3.91747 13.1581 3.77679 13.0799 3.69863C12.9861 3.62048 12.8611 3.65174 12.7673 3.66737C12.6423 3.69864 10.532 5.08982 6.46788 7.82529C5.87389 8.2317 5.3268 8.43491 4.84223 8.41927C4.31077 8.41927 3.27909 8.12228 2.51315 7.87218C1.57527 7.57519 0.840603 7.40324 0.903129 6.88741C0.934391 6.62168 1.30955 6.34032 2.01296 6.05895H1.99732Z" fill="#052E3E"/>
</svg>
