<svg width="65" height="64" viewBox="0 0 65 64" fill="none" xmlns="http://www.w3.org/2000/svg">
<g clip-path="url(#clip0_367_346)">
<path d="M32.7879 32.3679C32.7012 32.3679 32.5999 32.3245 32.5565 32.2377C32.4842 32.1075 32.5276 31.9484 32.6578 31.8761L57.3321 17.8757C57.4623 17.8033 57.6214 17.8467 57.6937 17.9769C57.766 18.1071 57.7226 18.2662 57.5924 18.3385L32.9181 32.3389C32.9181 32.3389 32.8313 32.3679 32.7879 32.3679Z" fill="#A5CCE0"/>
<path d="M8.12809 18.3677C8.04132 18.3677 7.95454 18.3243 7.89668 18.2375C7.82437 18.1073 7.86776 17.9482 7.98346 17.8759L32.6578 3.21016C32.788 3.13784 32.9471 3.18123 33.0194 3.29694C33.0917 3.42711 33.0483 3.5862 32.9326 3.65852L8.25826 18.3387C8.25826 18.3387 8.17148 18.3821 8.12809 18.3821V18.3677Z" fill="#A5CCE0"/>
<path d="M8.11366 47.0326C7.96902 47.0326 7.85332 46.9169 7.85332 46.7723V18.106C7.85332 17.9614 7.96902 17.8457 8.11366 17.8457C8.25829 17.8457 8.374 17.9614 8.374 18.106V46.7723C8.374 46.9169 8.25829 47.0326 8.11366 47.0326Z" fill="#A5CCE0"/>
<path d="M57.4623 47.0326C57.3177 47.0326 57.202 46.9169 57.202 46.7723V18.106C57.202 17.9614 57.3177 17.8457 57.4623 17.8457C57.6069 17.8457 57.7226 17.9614 57.7226 18.106V46.7723C57.7226 46.9169 57.6069 47.0326 57.4623 47.0326Z" fill="#A5CCE0"/>
<path d="M32.7881 61.0336C32.6434 61.0336 32.5277 60.9179 32.5277 60.7732V32.107C32.5277 31.9624 32.6434 31.8467 32.7881 31.8467C32.9327 31.8467 33.0484 31.9624 33.0484 32.107V60.7732C33.0484 60.9179 32.9327 61.0336 32.7881 61.0336Z" fill="#A5CCE0"/>
<path d="M32.7881 32.3674C32.6434 32.3674 32.5277 32.2517 32.5277 32.107V3.42635C32.5277 3.28172 32.6434 3.16602 32.7881 3.16602C32.9327 3.16602 33.0484 3.28172 33.0484 3.42635V32.0926C33.0484 32.2372 32.9327 32.3529 32.7881 32.3529V32.3674Z" fill="#A5CCE0"/>
<path d="M32.7881 50.7797C43.1004 50.7797 51.4602 42.4199 51.4602 32.1076C51.4602 21.7953 43.1004 13.4355 32.7881 13.4355C22.4758 13.4355 14.116 21.7953 14.116 32.1076C14.116 42.4199 22.4758 50.7797 32.7881 50.7797Z" fill="url(#paint0_linear_367_346)"/>
<path d="M32.7881 6.75272C34.6253 6.75272 36.1146 5.26337 36.1146 3.42616C36.1146 1.58896 34.6253 0.0996094 32.7881 0.0996094C30.9509 0.0996094 29.4615 1.58896 29.4615 3.42616C29.4615 5.26337 30.9509 6.75272 32.7881 6.75272Z" fill="url(#paint1_linear_367_346)"/>
<path d="M8.11366 21.4344C9.95086 21.4344 11.4402 19.945 11.4402 18.1078C11.4402 16.2706 9.95086 14.7812 8.11366 14.7812C6.27646 14.7812 4.78711 16.2706 4.78711 18.1078C4.78711 19.945 6.27646 21.4344 8.11366 21.4344Z" fill="url(#paint2_linear_367_346)"/>
<path d="M57.4623 21.4344C59.2995 21.4344 60.7888 19.945 60.7888 18.1078C60.7888 16.2706 59.2995 14.7812 57.4623 14.7812C55.6251 14.7812 54.1357 16.2706 54.1357 18.1078C54.1357 19.945 55.6251 21.4344 57.4623 21.4344Z" fill="url(#paint3_linear_367_346)"/>
<path d="M32.7881 64.1004C34.6253 64.1004 36.1146 62.611 36.1146 60.7738C36.1146 58.9366 34.6253 57.4473 32.7881 57.4473C30.9509 57.4473 29.4615 58.9366 29.4615 60.7738C29.4615 62.611 30.9509 64.1004 32.7881 64.1004Z" fill="url(#paint4_linear_367_346)"/>
<path d="M8.11366 50.0994C9.95086 50.0994 11.4402 48.61 11.4402 46.7728C11.4402 44.9356 9.95086 43.4463 8.11366 43.4463C6.27646 43.4463 4.78711 44.9356 4.78711 46.7728C4.78711 48.61 6.27646 50.0994 8.11366 50.0994Z" fill="url(#paint5_linear_367_346)"/>
<path d="M57.4623 50.0994C59.2995 50.0994 60.7888 48.61 60.7888 46.7728C60.7888 44.9356 59.2995 43.4463 57.4623 43.4463C55.6251 43.4463 54.1357 44.9356 54.1357 46.7728C54.1357 48.61 55.6251 50.0994 57.4623 50.0994Z" fill="url(#paint6_linear_367_346)"/>
<path d="M57.4624 18.3677C57.4624 18.3677 57.3756 18.3677 57.3322 18.3243L32.6579 3.65855C32.5277 3.58623 32.4843 3.41267 32.5711 3.29697C32.6434 3.1668 32.817 3.12341 32.9327 3.21019L57.607 17.8759C57.7372 17.9483 57.7806 18.1218 57.6938 18.2375C57.6504 18.3243 57.5492 18.3677 57.4624 18.3677Z" fill="#A5CCE0"/>
<path d="M32.788 32.3679C32.788 32.3679 32.7013 32.3679 32.6579 32.3389L7.98354 18.3385C7.85337 18.2662 7.80998 18.1071 7.8823 17.9769C7.95461 17.8467 8.11371 17.8033 8.24388 17.8757L32.9182 31.8761C33.0484 31.9484 33.0918 32.1075 33.0194 32.2377C32.9761 32.3245 32.8748 32.3679 32.788 32.3679Z" fill="#A5CCE0"/>
<path d="M32.7879 61.0339C32.7012 61.0339 32.5999 60.9905 32.5565 60.9037C32.4842 60.7735 32.5276 60.6144 32.6578 60.5421L57.3321 46.5417C57.4623 46.4694 57.6214 46.5127 57.6937 46.6429C57.766 46.7731 57.7226 46.9322 57.5924 47.0045L32.9181 61.0049C32.9181 61.0049 32.8313 61.0339 32.7879 61.0339Z" fill="#A5CCE0"/>
<path d="M8.12809 47.0337C8.04132 47.0337 7.95454 46.9903 7.89668 46.9035C7.82437 46.7733 7.86776 46.6143 7.98346 46.5419L32.6578 31.8762C32.788 31.8039 32.9471 31.8472 33.0194 31.963C33.0917 32.0931 33.0483 32.2522 32.9326 32.3245L8.25826 47.0048C8.25826 47.0048 8.17148 47.0481 8.12809 47.0481V47.0337Z" fill="#A5CCE0"/>
<path d="M57.4624 47.0327C57.4624 47.0327 57.3756 47.0327 57.3322 46.9893L32.6579 32.3236C32.5277 32.2513 32.4843 32.0777 32.5711 31.962C32.6434 31.8318 32.817 31.7884 32.9327 31.8752L57.607 46.541C57.7372 46.6133 57.7806 46.7869 57.6938 46.9026C57.6504 46.9893 57.5492 47.0327 57.4624 47.0327Z" fill="#A5CCE0"/>
<path d="M32.788 61.0339C32.788 61.0339 32.7013 61.0339 32.6579 61.0049L7.98354 47.0045C7.85337 46.9322 7.80998 46.7731 7.8823 46.6429C7.95461 46.5127 8.11371 46.4694 8.24388 46.5417L32.9182 60.5421C33.0484 60.6144 33.0918 60.7735 33.0194 60.9037C32.9761 60.9905 32.8748 61.0339 32.788 61.0339Z" fill="#A5CCE0"/>
</g>
<defs>
<linearGradient id="paint0_linear_367_346" x1="51.7001" y1="-1.59961" x2="40.7235" y2="62.1427" gradientUnits="userSpaceOnUse">
<stop stop-color="#A5CCE0"/>
<stop offset="1" stop-color="#A5CCE0" stop-opacity="0"/>
</linearGradient>
<linearGradient id="paint1_linear_367_346" x1="36.1574" y1="-2.579" x2="34.2018" y2="8.77711" gradientUnits="userSpaceOnUse">
<stop stop-color="#A5CCE0"/>
<stop offset="1" stop-color="#A5CCE0" stop-opacity="0"/>
</linearGradient>
<linearGradient id="paint2_linear_367_346" x1="11.483" y1="12.1026" x2="9.5274" y2="23.4587" gradientUnits="userSpaceOnUse">
<stop stop-color="#A5CCE0"/>
<stop offset="1" stop-color="#A5CCE0" stop-opacity="0"/>
</linearGradient>
<linearGradient id="paint3_linear_367_346" x1="60.8316" y1="12.1026" x2="58.876" y2="23.4587" gradientUnits="userSpaceOnUse">
<stop stop-color="#A5CCE0"/>
<stop offset="1" stop-color="#A5CCE0" stop-opacity="0"/>
</linearGradient>
<linearGradient id="paint4_linear_367_346" x1="36.1574" y1="54.7687" x2="34.2018" y2="66.1248" gradientUnits="userSpaceOnUse">
<stop stop-color="#A5CCE0"/>
<stop offset="1" stop-color="#A5CCE0" stop-opacity="0"/>
</linearGradient>
<linearGradient id="paint5_linear_367_346" x1="11.483" y1="40.7677" x2="9.5274" y2="52.1238" gradientUnits="userSpaceOnUse">
<stop stop-color="#A5CCE0"/>
<stop offset="1" stop-color="#A5CCE0" stop-opacity="0"/>
</linearGradient>
<linearGradient id="paint6_linear_367_346" x1="60.8316" y1="40.7677" x2="58.876" y2="52.1238" gradientUnits="userSpaceOnUse">
<stop stop-color="#A5CCE0"/>
<stop offset="1" stop-color="#A5CCE0" stop-opacity="0"/>
</linearGradient>
<clipPath id="clip0_367_346">
<rect width="64" height="64" fill="white" transform="translate(0.5)"/>
</clipPath>
</defs>
</svg>
