<svg width="65" height="64" viewBox="0 0 65 64" fill="none" xmlns="http://www.w3.org/2000/svg">
<g clip-path="url(#clip0_367_481)">
<path d="M59.2867 9.35608H5.83039C5.09443 9.35608 4.5 8.76165 4.5 8.0257C4.5 7.28974 5.09443 6.69531 5.83039 6.69531H59.2867C60.0227 6.69531 60.6171 7.28974 60.6171 8.0257C60.6171 8.76165 60.0227 9.35608 59.2867 9.35608Z" fill="#A5CCE0"/>
<path d="M37.9297 55.451H27.8385C27.0459 55.451 26.3382 54.984 26.0127 54.2763L5.77376 9.51029C5.17932 8.17991 6.14174 6.67969 7.59951 6.67969H57.5459C58.9895 6.67969 59.9661 8.16576 59.3858 9.48199L39.7696 54.248C39.444 54.9698 38.7364 55.451 37.9297 55.451Z" fill="url(#paint0_linear_367_481)"/>
<path d="M32.5655 63.9999C32.2683 63.9999 32.0277 63.7593 32.0277 63.4621V31.3913C32.0277 31.0941 32.2683 30.8535 32.5655 30.8535C32.8628 30.8535 33.1034 31.0941 33.1034 31.3913V63.4621C33.1034 63.7593 32.8628 63.9999 32.5655 63.9999Z" fill="#A5CCE0"/>
<g opacity="0.7">
<path d="M32.5657 63.9997C32.4242 63.9997 32.2968 63.9431 32.1836 63.844L29.5086 61.1691C29.2963 60.9568 29.2963 60.6171 29.5086 60.419C29.7209 60.2067 30.0606 60.2067 30.2588 60.419L32.5516 62.7118L34.8444 60.419C35.0567 60.2067 35.3963 60.2067 35.5945 60.419C35.8068 60.6313 35.8068 60.971 35.5945 61.1691L32.9195 63.844C32.8205 63.9431 32.6789 63.9997 32.5374 63.9997H32.5657Z" fill="#A5CCE0"/>
</g>
<path d="M41.2415 10.6997C44.1961 10.6997 46.5914 8.30448 46.5914 5.34984C46.5914 2.39521 44.1961 0 41.2415 0C38.2868 0 35.8916 2.39521 35.8916 5.34984C35.8916 8.30448 38.2868 10.6997 41.2415 10.6997Z" fill="url(#paint1_linear_367_481)"/>
<path d="M21.8499 14.7007C24.8045 14.7007 27.1998 12.3055 27.1998 9.35082C27.1998 6.39618 24.8045 4.00098 21.8499 4.00098C18.8952 4.00098 16.5 6.39618 16.5 9.35082C16.5 12.3055 18.8952 14.7007 21.8499 14.7007Z" fill="url(#paint2_linear_367_481)"/>
<path d="M32.5657 25.3901C35.5204 25.3901 37.9156 22.9949 37.9156 20.0403C37.9156 17.0856 35.5204 14.6904 32.5657 14.6904C29.611 14.6904 27.2158 17.0856 27.2158 20.0403C27.2158 22.9949 29.611 25.3901 32.5657 25.3901Z" fill="url(#paint3_linear_367_481)"/>
</g>
<defs>
<linearGradient id="paint0_linear_367_481" x1="59.9025" y1="-12.9562" x2="46.877" y2="70.7323" gradientUnits="userSpaceOnUse">
<stop stop-color="#A5CCE0"/>
<stop offset="1" stop-color="#A5CCE0" stop-opacity="0"/>
</linearGradient>
<linearGradient id="paint1_linear_367_481" x1="46.6601" y1="-4.30781" x2="43.5152" y2="13.9554" gradientUnits="userSpaceOnUse">
<stop stop-color="#A5CCE0"/>
<stop offset="1" stop-color="#A5CCE0" stop-opacity="0"/>
</linearGradient>
<linearGradient id="paint2_linear_367_481" x1="27.2685" y1="-0.30683" x2="24.1235" y2="17.9563" gradientUnits="userSpaceOnUse">
<stop stop-color="#A5CCE0"/>
<stop offset="1" stop-color="#A5CCE0" stop-opacity="0"/>
</linearGradient>
<linearGradient id="paint3_linear_367_481" x1="37.9843" y1="10.3826" x2="34.8394" y2="28.6458" gradientUnits="userSpaceOnUse">
<stop stop-color="#A5CCE0"/>
<stop offset="1" stop-color="#A5CCE0" stop-opacity="0"/>
</linearGradient>
<clipPath id="clip0_367_481">
<rect width="64" height="64" fill="white" transform="translate(0.5)"/>
</clipPath>
</defs>
</svg>
