<svg width="65" height="64" viewBox="0 0 65 64" fill="none" xmlns="http://www.w3.org/2000/svg">
<g clip-path="url(#clip0_367_504)">
<path d="M3.70001 0V8.0033H61.0283V0H3.70001ZM9.02675 5.32674C8.28839 5.32674 7.69506 4.73342 7.69506 3.99506C7.69506 3.2567 8.28839 2.66337 9.02675 2.66337C9.7651 2.66337 10.3584 3.2567 10.3584 3.99506C10.3584 4.73342 9.7651 5.32674 9.02675 5.32674ZM14.3535 5.32674C13.6151 5.32674 13.0218 4.73342 13.0218 3.99506C13.0218 3.2567 13.6151 2.66337 14.3535 2.66337C15.0918 2.66337 15.6852 3.2567 15.6852 3.99506C15.6852 4.73342 15.0918 5.32674 14.3535 5.32674Z" fill="url(#paint0_linear_367_504)"/>
<path d="M61.0283 9.33496H3.70001V34.6633H61.0283V9.33496Z" fill="url(#paint1_linear_367_504)"/>
<path d="M61.0283 28.006V34.6776H3.70001V29.3509C17.7025 27.3467 20.2867 4.60262 31.7049 16.0208C47.0391 31.355 48.3707 14.6891 61.0415 28.0192L61.0283 28.006Z" fill="url(#paint2_linear_367_504)"/>
<path d="M31.7049 35.9951H3.70001V64.0001H31.7049V35.9951Z" fill="url(#paint3_linear_367_504)"/>
<path d="M61.0414 35.9951H33.0365V64.0001H61.0414V35.9951Z" fill="url(#paint4_linear_367_504)"/>
<g opacity="0.3">
<path d="M40.3674 44.2629C39.8532 44.2629 39.4312 43.841 39.4312 43.3268C39.4312 42.8125 39.8532 42.3906 40.3674 42.3906C40.8816 42.3906 41.3035 42.8125 41.3035 43.3268C41.3035 43.841 40.8816 44.2629 40.3674 44.2629ZM40.3674 42.9312C40.1432 42.9312 39.9718 43.1158 39.9718 43.3268C39.9718 43.5377 40.1564 43.7223 40.3674 43.7223C40.5783 43.7223 40.7629 43.5377 40.7629 43.3268C40.7629 43.1158 40.5783 42.9312 40.3674 42.9312Z" fill="#A5CCE0"/>
</g>
<g opacity="0.7">
<path d="M47.026 44.2629C46.5118 44.2629 46.0898 43.841 46.0898 43.3268C46.0898 42.8125 46.5118 42.3906 47.026 42.3906C47.5402 42.3906 47.9621 42.8125 47.9621 43.3268C47.9621 43.841 47.5402 44.2629 47.026 44.2629ZM47.026 42.9312C46.8018 42.9312 46.6304 43.1158 46.6304 43.3268C46.6304 43.5377 46.815 43.7223 47.026 43.7223C47.2369 43.7223 47.4215 43.5377 47.4215 43.3268C47.4215 43.1158 47.2369 42.9312 47.026 42.9312Z" fill="#A5CCE0"/>
</g>
<g opacity="0.3">
<path d="M53.6975 44.2629C53.1832 44.2629 52.7613 43.841 52.7613 43.3268C52.7613 42.8125 53.1832 42.3906 53.6975 42.3906C54.2117 42.3906 54.6336 42.8125 54.6336 43.3268C54.6336 43.841 54.2117 44.2629 53.6975 44.2629ZM53.6975 42.9312C53.4733 42.9312 53.3019 43.1158 53.3019 43.3268C53.3019 43.5377 53.4865 43.7223 53.6975 43.7223C53.9084 43.7223 54.093 43.5377 54.093 43.3268C54.093 43.1158 53.9084 42.9312 53.6975 42.9312Z" fill="#A5CCE0"/>
</g>
<g opacity="0.7">
<path d="M40.3674 50.9338C39.8532 50.9338 39.4312 50.5119 39.4312 49.9977C39.4312 49.4834 39.8532 49.0615 40.3674 49.0615C40.8816 49.0615 41.3035 49.4834 41.3035 49.9977C41.3035 50.5119 40.8816 50.9338 40.3674 50.9338ZM40.3674 49.6021C40.1432 49.6021 39.9718 49.7867 39.9718 49.9977C39.9718 50.2086 40.1564 50.3932 40.3674 50.3932C40.5783 50.3932 40.7629 50.2086 40.7629 49.9977C40.7629 49.7867 40.5783 49.6021 40.3674 49.6021Z" fill="#A5CCE0"/>
</g>
<g opacity="0.3">
<path d="M47.026 50.9338C46.5118 50.9338 46.0898 50.5119 46.0898 49.9977C46.0898 49.4834 46.5118 49.0615 47.026 49.0615C47.5402 49.0615 47.9621 49.4834 47.9621 49.9977C47.9621 50.5119 47.5402 50.9338 47.026 50.9338ZM47.026 49.6021C46.8018 49.6021 46.6304 49.7867 46.6304 49.9977C46.6304 50.2086 46.815 50.3932 47.026 50.3932C47.2369 50.3932 47.4215 50.2086 47.4215 49.9977C47.4215 49.7867 47.2369 49.6021 47.026 49.6021Z" fill="#A5CCE0"/>
</g>
<g opacity="0.7">
<path d="M53.6975 50.9338C53.1832 50.9338 52.7613 50.5119 52.7613 49.9977C52.7613 49.4834 53.1832 49.0615 53.6975 49.0615C54.2117 49.0615 54.6336 49.4834 54.6336 49.9977C54.6336 50.5119 54.2117 50.9338 53.6975 50.9338ZM53.6975 49.6021C53.4733 49.6021 53.3019 49.7867 53.3019 49.9977C53.3019 50.2086 53.4865 50.3932 53.6975 50.3932C53.9084 50.3932 54.093 50.2086 54.093 49.9977C54.093 49.7867 53.9084 49.6021 53.6975 49.6021Z" fill="#A5CCE0"/>
</g>
<g opacity="0.3">
<path d="M40.3674 57.6047C39.8532 57.6047 39.4312 57.1828 39.4312 56.6686C39.4312 56.1543 39.8532 55.7324 40.3674 55.7324C40.8816 55.7324 41.3035 56.1543 41.3035 56.6686C41.3035 57.1828 40.8816 57.6047 40.3674 57.6047ZM40.3674 56.273C40.1432 56.273 39.9718 56.4576 39.9718 56.6686C39.9718 56.8795 40.1564 57.0641 40.3674 57.0641C40.5783 57.0641 40.7629 56.8795 40.7629 56.6686C40.7629 56.4576 40.5783 56.273 40.3674 56.273Z" fill="#A5CCE0"/>
</g>
<g opacity="0.7">
<path d="M47.026 57.6047C46.5118 57.6047 46.0898 57.1828 46.0898 56.6686C46.0898 56.1543 46.5118 55.7324 47.026 55.7324C47.5402 55.7324 47.9621 56.1543 47.9621 56.6686C47.9621 57.1828 47.5402 57.6047 47.026 57.6047ZM47.026 56.273C46.8018 56.273 46.6304 56.4576 46.6304 56.6686C46.6304 56.8795 46.815 57.0641 47.026 57.0641C47.2369 57.0641 47.4215 56.8795 47.4215 56.6686C47.4215 56.4576 47.2369 56.273 47.026 56.273Z" fill="#A5CCE0"/>
</g>
<g opacity="0.3">
<path d="M53.6975 57.6047C53.1832 57.6047 52.7613 57.1828 52.7613 56.6686C52.7613 56.1543 53.1832 55.7324 53.6975 55.7324C54.2117 55.7324 54.6336 56.1543 54.6336 56.6686C54.6336 57.1828 54.2117 57.6047 53.6975 57.6047ZM53.6975 56.273C53.4733 56.273 53.3019 56.4576 53.3019 56.6686C53.3019 56.8795 53.4865 57.0641 53.6975 57.0641C53.9084 57.0641 54.093 56.8795 54.093 56.6686C54.093 56.4576 53.9084 56.273 53.6975 56.273Z" fill="#A5CCE0"/>
</g>
<path d="M17.7024 41.334C12.9162 41.334 9.03986 45.2104 9.03986 49.9965C9.03986 54.7827 12.9162 58.6591 17.7024 58.6591C22.4885 58.6591 26.3649 54.7827 26.3649 49.9965H17.7024V41.334Z" fill="url(#paint5_linear_367_504)"/>
<path d="M17.7025 41.334V49.9965H26.3651C26.3651 45.2104 22.4887 41.334 17.7025 41.334Z" fill="url(#paint6_linear_367_504)"/>
</g>
<defs>
<linearGradient id="paint0_linear_367_504" x1="64.1" y1="-34.4" x2="-3.07902" y2="9.29359" gradientUnits="userSpaceOnUse">
<stop stop-color="#A5CCE0"/>
<stop offset="1" stop-color="#A5CCE0" stop-opacity="0"/>
</linearGradient>
<linearGradient id="paint1_linear_367_504" x1="64.1" y1="-99.5322" x2="-3.07902" y2="38.7468" gradientUnits="userSpaceOnUse">
<stop stop-color="#A5CCE0"/>
<stop offset="1" stop-color="#A5CCE0" stop-opacity="0"/>
</linearGradient>
<linearGradient id="paint2_linear_367_504" x1="64.1139" y1="-81.0756" x2="-26.3669" y2="-59.5127" gradientUnits="userSpaceOnUse">
<stop stop-color="#A5CCE0"/>
<stop offset="1" stop-color="#A5CCE0" stop-opacity="0"/>
</linearGradient>
<linearGradient id="paint3_linear_367_504" x1="33.2054" y1="-84.3765" x2="-60.8589" y2="1.16675" gradientUnits="userSpaceOnUse">
<stop stop-color="#A5CCE0"/>
<stop offset="1" stop-color="#A5CCE0" stop-opacity="0"/>
</linearGradient>
<linearGradient id="paint4_linear_367_504" x1="62.5419" y1="-84.3765" x2="-31.5224" y2="1.16675" gradientUnits="userSpaceOnUse">
<stop stop-color="#A5CCE0"/>
<stop offset="1" stop-color="#A5CCE0" stop-opacity="0"/>
</linearGradient>
<linearGradient id="paint5_linear_367_504" x1="2.49996" y1="28.8004" x2="19.3" y2="59.6004" gradientUnits="userSpaceOnUse">
<stop stop-color="#A5CCE0"/>
<stop offset="1" stop-color="#A5CCE0" stop-opacity="0"/>
</linearGradient>
<linearGradient id="paint6_linear_367_504" x1="31.7001" y1="53.6004" x2="18.1001" y2="22.8004" gradientUnits="userSpaceOnUse">
<stop stop-color="#A5CCE0"/>
<stop offset="1" stop-color="#A5CCE0" stop-opacity="0"/>
</linearGradient>
<clipPath id="clip0_367_504">
<rect width="64" height="64" fill="white" transform="translate(0.5)"/>
</clipPath>
</defs>
</svg>
