<svg width="65" height="64" viewBox="0 0 65 64" fill="none" xmlns="http://www.w3.org/2000/svg">
<g clip-path="url(#clip0_367_1227)">
<path d="M58.7717 20.1664C58.7717 19.4314 58.1808 18.8262 57.4315 18.8262H6.77636C6.04139 18.8262 5.43613 19.417 5.43613 20.1664V44.161C5.43613 44.896 6.02698 45.5012 6.77636 45.5012H57.4459C58.1808 45.5012 58.7861 44.9104 58.7861 44.161V20.1664H58.7717ZM26.7646 33.4967C26.0296 33.4967 25.4244 32.9059 25.4244 32.1565C25.4244 31.4071 26.0152 30.8163 26.7646 30.8163C27.514 30.8163 28.1048 31.4071 28.1048 32.1565C28.1048 32.9059 27.514 33.4967 26.7646 33.4967ZM32.0967 33.4967C31.3617 33.4967 30.7565 32.9059 30.7565 32.1565C30.7565 31.4071 31.3473 30.8163 32.0967 30.8163C32.8461 30.8163 33.4369 31.4071 33.4369 32.1565C33.4369 32.9059 32.8461 33.4967 32.0967 33.4967ZM37.4288 33.4967C36.6939 33.4967 36.0886 32.9059 36.0886 32.1565C36.0886 31.4071 36.6794 30.8163 37.4288 30.8163C38.1782 30.8163 38.7691 31.4071 38.7691 32.1565C38.7691 32.9059 38.1782 33.4967 37.4288 33.4967Z" fill="url(#paint0_linear_367_1227)"/>
<path d="M32.0968 13.5088C35.7818 13.5088 38.7691 10.5215 38.7691 6.83643C38.7691 3.15138 35.7818 0.164062 32.0968 0.164062C28.4117 0.164062 25.4244 3.15138 25.4244 6.83643C25.4244 10.5215 28.4117 13.5088 32.0968 13.5088Z" fill="url(#paint1_linear_367_1227)"/>
<path d="M52.0993 13.5088C55.7843 13.5088 58.7716 10.5215 58.7716 6.83643C58.7716 3.15138 55.7843 0.164062 52.0993 0.164062C48.4143 0.164062 45.4269 3.15138 45.4269 6.83643C45.4269 10.5215 48.4143 13.5088 52.0993 13.5088Z" fill="url(#paint2_linear_367_1227)"/>
<path d="M12.1085 13.5088C15.7935 13.5088 18.7808 10.5215 18.7808 6.83643C18.7808 3.15138 15.7935 0.164062 12.1085 0.164062C8.42344 0.164062 5.43613 3.15138 5.43613 6.83643C5.43613 10.5215 8.42344 13.5088 12.1085 13.5088Z" fill="url(#paint3_linear_367_1227)"/>
<path d="M32.0968 64.1787C35.7818 64.1787 38.7691 61.1914 38.7691 57.5064C38.7691 53.8213 35.7818 50.834 32.0968 50.834C28.4117 50.834 25.4244 53.8213 25.4244 57.5064C25.4244 61.1914 28.4117 64.1787 32.0968 64.1787Z" fill="url(#paint4_linear_367_1227)"/>
<path d="M12.1085 64.1787C15.7935 64.1787 18.7808 61.1914 18.7808 57.5064C18.7808 53.8213 15.7935 50.834 12.1085 50.834C8.42344 50.834 5.43613 53.8213 5.43613 57.5064C5.43613 61.1914 8.42344 64.1787 12.1085 64.1787Z" fill="url(#paint5_linear_367_1227)"/>
<path d="M52.0993 64.1787C55.7843 64.1787 58.7716 61.1914 58.7716 57.5064C58.7716 53.8213 55.7843 50.834 52.0993 50.834C48.4143 50.834 45.4269 53.8213 45.4269 57.5064C45.4269 61.1914 48.4143 64.1787 52.0993 64.1787Z" fill="url(#paint6_linear_367_1227)"/>
<path d="M12.1084 28.4389C11.9643 28.4389 11.8346 28.3236 11.8346 28.1651V4.83338C11.8346 4.68927 11.9499 4.55957 12.1084 4.55957C12.2669 4.55957 12.3822 4.67486 12.3822 4.83338V28.1651C12.3822 28.3092 12.2669 28.4389 12.1084 28.4389Z" fill="url(#paint7_linear_367_1227)"/>
<g opacity="0.7">
<path d="M14.7746 7.75878C14.7746 7.75878 14.6449 7.72996 14.5873 7.68673L12.1085 5.20801L9.62984 7.68673C9.52896 7.78761 9.35603 7.78761 9.25515 7.68673C9.15427 7.58585 9.15427 7.41292 9.25515 7.31204L11.9212 4.64597C12.0221 4.54509 12.195 4.54509 12.2959 4.64597L14.962 7.31204C15.0628 7.41292 15.0628 7.58585 14.962 7.68673C14.9043 7.74437 14.8467 7.75878 14.7746 7.75878Z" fill="url(#paint8_linear_367_1227)"/>
</g>
<g opacity="0.7">
<path d="M12.1085 59.7685C12.1085 59.7685 11.9788 59.7397 11.9212 59.6965L9.25515 57.0304C9.15427 56.9295 9.15427 56.7566 9.25515 56.6557C9.35603 56.5549 9.52896 56.5549 9.62984 56.6557L12.1085 59.1345L14.5873 56.6557C14.6881 56.5549 14.8611 56.5549 14.962 56.6557C15.0628 56.7566 15.0628 56.9295 14.962 57.0304L12.2959 59.6965C12.2959 59.6965 12.1806 59.7685 12.1085 59.7685Z" fill="url(#paint9_linear_367_1227)"/>
</g>
<path d="M32.0967 59.769C31.9525 59.769 31.8228 59.6537 31.8228 59.4951V36.1635C31.8228 36.0193 31.9381 35.8896 32.0967 35.8896C32.2552 35.8896 32.3705 36.0049 32.3705 36.1635V59.4951C32.3705 59.6392 32.2552 59.769 32.0967 59.769Z" fill="url(#paint10_linear_367_1227)"/>
<path d="M32.0967 28.4389C31.9525 28.4389 31.8228 28.3236 31.8228 28.1651V4.83338C31.8228 4.68927 31.9381 4.55957 32.0967 4.55957C32.2552 4.55957 32.3705 4.67486 32.3705 4.83338V28.1651C32.3705 28.3092 32.2552 28.4389 32.0967 28.4389Z" fill="url(#paint11_linear_367_1227)"/>
<g opacity="0.7">
<path d="M34.7772 7.75878C34.7772 7.75878 34.6475 7.72996 34.5898 7.68673L32.1111 5.20801L29.6324 7.68673C29.5315 7.78761 29.3586 7.78761 29.2577 7.68673C29.1568 7.58585 29.1568 7.41292 29.2577 7.31204L31.9238 4.64597C32.0246 4.54509 32.1976 4.54509 32.2984 4.64597L34.9645 7.31204C35.0654 7.41292 35.0654 7.58585 34.9645 7.68673C34.9069 7.74437 34.8492 7.75878 34.7772 7.75878Z" fill="url(#paint12_linear_367_1227)"/>
</g>
<g opacity="0.7">
<path d="M32.0966 59.7685C32.0966 59.7685 31.9669 59.7397 31.9093 59.6965L29.2432 57.0304C29.1424 56.9295 29.1424 56.7566 29.2432 56.6557C29.3441 56.5549 29.517 56.5549 29.6179 56.6557L32.0966 59.1345L34.5753 56.6557C34.6762 56.5549 34.8492 56.5549 34.95 56.6557C35.0509 56.7566 35.0509 56.9295 34.95 57.0304L32.284 59.6965C32.284 59.6965 32.1687 59.7685 32.0966 59.7685Z" fill="url(#paint13_linear_367_1227)"/>
</g>
<path d="M52.0994 59.769C51.9553 59.769 51.8256 59.6537 51.8256 59.4951V36.1635C51.8256 36.0193 51.9409 35.8896 52.0994 35.8896C52.2579 35.8896 52.3732 36.0049 52.3732 36.1635V59.4951C52.3732 59.6392 52.2579 59.769 52.0994 59.769Z" fill="url(#paint14_linear_367_1227)"/>
<g opacity="0.7">
<path d="M54.7654 7.75878C54.7654 7.75878 54.6357 7.72996 54.5781 7.68673L52.0994 5.20801L49.6207 7.68673C49.5198 7.78761 49.3469 7.78761 49.246 7.68673C49.1451 7.58585 49.1451 7.41292 49.246 7.31204L51.912 4.64597C52.0129 4.54509 52.1858 4.54509 52.2867 4.64597L54.9528 7.31204C55.0537 7.41292 55.0537 7.58585 54.9528 7.68673C54.8951 7.74437 54.8375 7.75878 54.7654 7.75878Z" fill="url(#paint15_linear_367_1227)"/>
</g>
<g opacity="0.7">
<path d="M52.0994 59.7685C52.0994 59.7685 51.9697 59.7397 51.912 59.6965L49.246 57.0304C49.1451 56.9295 49.1451 56.7566 49.246 56.6557C49.3469 56.5549 49.5198 56.5549 49.6207 56.6557L52.0994 59.1345L54.5781 56.6557C54.679 56.5549 54.8519 56.5549 54.9528 56.6557C55.0537 56.7566 55.0537 56.9295 54.9528 57.0304L52.2867 59.6965C52.2867 59.6965 52.1714 59.7685 52.0994 59.7685Z" fill="url(#paint16_linear_367_1227)"/>
</g>
<path d="M12.1084 59.7677C11.9643 59.7677 11.8346 59.6524 11.8346 59.4939V31.8965H20.7695C20.9136 31.8965 21.0433 32.0118 21.0433 32.1703C21.0433 32.3288 20.928 32.4441 20.7695 32.4441H12.3678V59.5083C12.3678 59.6524 12.2525 59.7821 12.094 59.7821L12.1084 59.7677Z" fill="url(#paint17_linear_367_1227)"/>
<path d="M52.3732 32.4308H43.4383C43.2942 32.4308 43.1645 32.3155 43.1645 32.157C43.1645 31.9984 43.2797 31.8831 43.4383 31.8831H51.84V4.83338C51.84 4.68927 51.9552 4.55957 52.1138 4.55957C52.2723 4.55957 52.3876 4.67486 52.3876 4.83338V32.4308H52.3732Z" fill="url(#paint18_linear_367_1227)"/>
</g>
<defs>
<linearGradient id="paint0_linear_367_1227" x1="59.1289" y1="8.08651" x2="55.122" y2="54.623" gradientUnits="userSpaceOnUse">
<stop stop-color="#A5CCE0"/>
<stop offset="1" stop-color="#A5CCE0" stop-opacity="0"/>
</linearGradient>
<linearGradient id="paint1_linear_367_1227" x1="38.8548" y1="-5.20867" x2="34.9324" y2="17.5693" gradientUnits="userSpaceOnUse">
<stop stop-color="#A5CCE0"/>
<stop offset="1" stop-color="#A5CCE0" stop-opacity="0"/>
</linearGradient>
<linearGradient id="paint2_linear_367_1227" x1="58.8574" y1="-5.20867" x2="54.9349" y2="17.5693" gradientUnits="userSpaceOnUse">
<stop stop-color="#A5CCE0"/>
<stop offset="1" stop-color="#A5CCE0" stop-opacity="0"/>
</linearGradient>
<linearGradient id="paint3_linear_367_1227" x1="18.8666" y1="-5.20867" x2="14.9441" y2="17.5693" gradientUnits="userSpaceOnUse">
<stop stop-color="#A5CCE0"/>
<stop offset="1" stop-color="#A5CCE0" stop-opacity="0"/>
</linearGradient>
<linearGradient id="paint4_linear_367_1227" x1="38.8548" y1="45.4613" x2="34.9324" y2="68.2392" gradientUnits="userSpaceOnUse">
<stop stop-color="#A5CCE0"/>
<stop offset="1" stop-color="#A5CCE0" stop-opacity="0"/>
</linearGradient>
<linearGradient id="paint5_linear_367_1227" x1="18.8666" y1="45.4613" x2="14.9441" y2="68.2392" gradientUnits="userSpaceOnUse">
<stop stop-color="#A5CCE0"/>
<stop offset="1" stop-color="#A5CCE0" stop-opacity="0"/>
</linearGradient>
<linearGradient id="paint6_linear_367_1227" x1="58.8574" y1="45.4613" x2="54.9349" y2="68.2392" gradientUnits="userSpaceOnUse">
<stop stop-color="#A5CCE0"/>
<stop offset="1" stop-color="#A5CCE0" stop-opacity="0"/>
</linearGradient>
<linearGradient id="paint7_linear_367_1227" x1="12.1084" y1="28.4245" x2="12.1084" y2="4.55957" gradientUnits="userSpaceOnUse">
<stop stop-color="#99C2D6"/>
<stop offset="1" stop-color="#99C2D6"/>
</linearGradient>
<linearGradient id="paint8_linear_367_1227" x1="9.16868" y1="6.15914" x2="15.0412" y2="6.15914" gradientUnits="userSpaceOnUse">
<stop stop-color="#99C2D6"/>
<stop offset="1" stop-color="#99C2D6"/>
</linearGradient>
<linearGradient id="paint9_linear_367_1227" x1="9.16868" y1="58.1617" x2="15.0412" y2="58.1617" gradientUnits="userSpaceOnUse">
<stop stop-color="#99C2D6"/>
<stop offset="1" stop-color="#99C2D6"/>
</linearGradient>
<linearGradient id="paint10_linear_367_1227" x1="32.1039" y1="35.8896" x2="32.1039" y2="59.7617" gradientUnits="userSpaceOnUse">
<stop stop-color="#99C2D6"/>
<stop offset="1" stop-color="#99C2D6"/>
</linearGradient>
<linearGradient id="paint11_linear_367_1227" x1="32.1039" y1="28.4245" x2="32.1039" y2="4.55957" gradientUnits="userSpaceOnUse">
<stop stop-color="#99C2D6"/>
<stop offset="1" stop-color="#99C2D6"/>
</linearGradient>
<linearGradient id="paint12_linear_367_1227" x1="29.1712" y1="6.15914" x2="35.0366" y2="6.15914" gradientUnits="userSpaceOnUse">
<stop stop-color="#99C2D6"/>
<stop offset="1" stop-color="#99C2D6"/>
</linearGradient>
<linearGradient id="paint13_linear_367_1227" x1="29.1712" y1="58.1617" x2="35.0365" y2="58.1617" gradientUnits="userSpaceOnUse">
<stop stop-color="#99C2D6"/>
<stop offset="1" stop-color="#99C2D6"/>
</linearGradient>
<linearGradient id="paint14_linear_367_1227" x1="52.1066" y1="35.8896" x2="52.1066" y2="59.7617" gradientUnits="userSpaceOnUse">
<stop stop-color="#99C2D6"/>
<stop offset="1" stop-color="#99C2D6"/>
</linearGradient>
<linearGradient id="paint15_linear_367_1227" x1="49.1739" y1="6.15914" x2="55.0392" y2="6.15914" gradientUnits="userSpaceOnUse">
<stop stop-color="#99C2D6"/>
<stop offset="1" stop-color="#99C2D6"/>
</linearGradient>
<linearGradient id="paint16_linear_367_1227" x1="49.1739" y1="58.1617" x2="55.0392" y2="58.1617" gradientUnits="userSpaceOnUse">
<stop stop-color="#99C2D6"/>
<stop offset="1" stop-color="#99C2D6"/>
</linearGradient>
<linearGradient id="paint17_linear_367_1227" x1="24.7325" y1="38.4824" x2="5.93318" y2="49.3339" gradientUnits="userSpaceOnUse">
<stop stop-color="#99C2D6"/>
<stop offset="1" stop-color="#99C2D6"/>
</linearGradient>
<linearGradient id="paint18_linear_367_1227" x1="39.4824" y1="25.8377" x2="58.2818" y2="14.9861" gradientUnits="userSpaceOnUse">
<stop stop-color="#99C2D6"/>
<stop offset="1" stop-color="#99C2D6"/>
</linearGradient>
<clipPath id="clip0_367_1227">
<rect width="64" height="64" fill="white" transform="translate(0.5)"/>
</clipPath>
</defs>
</svg>
