<svg width="65" height="64" viewBox="0 0 65 64" fill="none" xmlns="http://www.w3.org/2000/svg">
<g clip-path="url(#clip0_367_45)">
<path d="M64.7641 4.41699H0.764061V57.7461H64.7641V4.41699Z" fill="url(#paint0_linear_367_45)"/>
<path d="M0.764061 57.746C30.7615 57.746 32.7641 23.7432 48.0988 23.7432C62.1031 23.7432 64.7641 57.746 64.7641 57.746H0.764061Z" fill="url(#paint1_linear_367_45)"/>
<path d="M0.764061 57.7457C14.0963 57.7457 16.7572 25.7455 34.0945 32.4116C44.9578 36.5951 49.4293 57.7457 64.7641 57.7457H0.764061Z" fill="url(#paint2_linear_367_45)"/>
<path d="M0.764061 57.7467C0.764061 57.7467 10.3243 37.1035 30.7615 45.7448C48.0988 53.0831 52.0902 57.7467 64.7641 57.7467H0.764061Z" fill="url(#paint3_linear_367_45)"/>
<path d="M64.092 60.0095H1.43619C1.28531 60.0095 1.17558 59.8861 1.17558 59.7489C1.17558 59.6117 1.29903 59.4883 1.43619 59.4883H64.092C64.2429 59.4883 64.3526 59.6117 64.3526 59.7489C64.3526 59.8861 64.2292 60.0095 64.092 60.0095Z" fill="url(#paint4_linear_367_45)"/>
<path d="M8.76076 35.0719C10.2304 35.0719 11.4217 33.8806 11.4217 32.411C11.4217 30.9414 10.2304 29.75 8.76076 29.75C7.29116 29.75 6.09981 30.9414 6.09981 32.411C6.09981 33.8806 7.29116 35.0719 8.76076 35.0719Z" fill="url(#paint5_linear_367_45)"/>
<path d="M8.76076 27.0758C10.2304 27.0758 11.4217 25.8845 11.4217 24.4149C11.4217 22.9453 10.2304 21.7539 8.76076 21.7539C7.29116 21.7539 6.09981 22.9453 6.09981 24.4149C6.09981 25.8845 7.29116 27.0758 8.76076 27.0758Z" fill="url(#paint6_linear_367_45)"/>
<path d="M8.76076 19.0788C10.2304 19.0788 11.4217 17.8874 11.4217 16.4178C11.4217 14.9482 10.2304 13.7568 8.76076 13.7568C7.29116 13.7568 6.09981 14.9482 6.09981 16.4178C6.09981 17.8874 7.29116 19.0788 8.76076 19.0788Z" fill="url(#paint7_linear_367_45)"/>
</g>
<defs>
<linearGradient id="paint0_linear_367_45" x1="68.1932" y1="-224.804" x2="-111.054" y2="-29.1771" gradientUnits="userSpaceOnUse">
<stop stop-color="#A5CCE0"/>
<stop offset="1" stop-color="#A5CCE0" stop-opacity="0"/>
</linearGradient>
<linearGradient id="paint1_linear_367_45" x1="65.1753" y1="10.0533" x2="59.7532" y2="69.3173" gradientUnits="userSpaceOnUse">
<stop stop-color="#A5CCE0"/>
<stop offset="1" stop-color="#A5CCE0" stop-opacity="0"/>
</linearGradient>
<linearGradient id="paint2_linear_367_45" x1="65.1753" y1="20.9305" x2="61.9335" y2="66.8319" gradientUnits="userSpaceOnUse">
<stop stop-color="#A5CCE0"/>
<stop offset="1" stop-color="#A5CCE0" stop-opacity="0"/>
</linearGradient>
<linearGradient id="paint3_linear_367_45" x1="65.1753" y1="37.9477" x2="64.2344" y2="62.7205" gradientUnits="userSpaceOnUse">
<stop stop-color="#A5CCE0"/>
<stop offset="1" stop-color="#A5CCE0" stop-opacity="0"/>
</linearGradient>
<linearGradient id="paint4_linear_367_45" x1="64.7585" y1="59.2784" x2="-6.29505" y2="60.0935" gradientUnits="userSpaceOnUse">
<stop stop-color="#A5CCE0"/>
<stop offset="1" stop-color="#A5CCE0" stop-opacity="0"/>
</linearGradient>
<linearGradient id="paint5_linear_367_45" x1="11.4559" y1="27.6073" x2="9.89161" y2="36.6913" gradientUnits="userSpaceOnUse">
<stop stop-color="#A5CCE0"/>
<stop offset="1" stop-color="#A5CCE0" stop-opacity="0"/>
</linearGradient>
<linearGradient id="paint6_linear_367_45" x1="11.4559" y1="19.6112" x2="9.89161" y2="28.6952" gradientUnits="userSpaceOnUse">
<stop stop-color="#A5CCE0"/>
<stop offset="1" stop-color="#A5CCE0" stop-opacity="0"/>
</linearGradient>
<linearGradient id="paint7_linear_367_45" x1="11.4559" y1="11.6142" x2="9.89161" y2="20.6981" gradientUnits="userSpaceOnUse">
<stop stop-color="#A5CCE0"/>
<stop offset="1" stop-color="#A5CCE0" stop-opacity="0"/>
</linearGradient>
<clipPath id="clip0_367_45">
<rect width="64" height="64" fill="white" transform="translate(0.5)"/>
</clipPath>
</defs>
</svg>
