<svg width="65" height="64" viewBox="0 0 65 64" fill="none" xmlns="http://www.w3.org/2000/svg">
<g clip-path="url(#clip0_367_540)">
<path d="M50.8169 22.114C49.4064 22.114 48.2724 22.6672 47.4842 23.5661V9.44679C47.4842 7.23417 45.6864 5.45025 43.4876 5.45025H42.8239C42.0909 5.45025 41.4963 6.04489 41.4963 6.77782V3.44506C41.4963 1.60582 40.0028 0.112305 38.1636 0.112305C36.3243 0.112305 34.8308 1.60582 34.8308 3.44506V7.4416C34.8308 6.70867 34.2362 6.11403 33.5033 6.11403H32.8395C30.6269 6.11403 28.843 7.91179 28.843 10.1106V16.7761C28.843 16.0432 28.2483 15.4485 27.5154 15.4485H26.8516C24.639 15.4485 22.8551 17.2463 22.8551 19.4451V41.4191C22.8551 42.318 23.0072 43.2169 23.2976 44.0604L26.3953 54.8331C26.6995 55.6767 26.8378 56.5756 26.8378 57.4744V64.1123H44.8429V55.2065C44.8429 53.63 45.313 52.095 46.1704 50.7813C46.1704 50.7813 46.1704 50.7813 46.1704 50.7674L50.8169 42.802C51.6881 41.4883 52.1583 39.9394 52.1583 38.363V23.4554C52.1583 22.7225 51.5637 22.1279 50.8307 22.1279L50.8169 22.114Z" fill="url(#paint0_linear_367_540)"/>
<path d="M47.4842 30.7715H43.7366C42.492 30.7715 41.4825 29.762 41.4825 28.5174V6.93052C41.4825 6.10078 42.1601 5.437 42.976 5.437C45.4652 5.437 47.4704 7.45601 47.4704 9.93138V30.7715H47.4842Z" fill="url(#paint1_linear_367_540)"/>
<path d="M36.8222 30.7847H41.4825V3.44506C41.4825 1.60582 39.989 0.112305 38.1497 0.112305C36.3105 0.112305 34.817 1.60582 34.817 3.44506V28.7795C34.817 29.8859 35.7159 30.7847 36.8222 30.7847Z" fill="url(#paint2_linear_367_540)"/>
<path d="M34.8171 32.1113H31.0695C29.8249 32.1113 28.8154 31.1018 28.8154 29.8572L28.8154 10.6074C28.8154 8.11825 30.8344 6.11306 33.3097 6.11306C34.1395 6.11306 34.8032 6.79067 34.8032 7.60658V32.1113H34.8171Z" fill="url(#paint3_linear_367_540)"/>
<path d="M28.8153 33.4385H22.8136V19.9415C22.8136 17.4523 24.8326 15.4471 27.308 15.4471C28.1377 15.4471 28.8015 16.1247 28.8015 16.9406L28.8015 33.4385H28.8153Z" fill="url(#paint4_linear_367_540)"/>
<path d="M50.8723 22.1145C47.8991 22.0868 46.1566 24.4792 46.1566 27.4524V34.7817C38.9657 35.9848 35.4946 41.4473 35.3564 45.7065C35.2734 48.5829 36.1446 51.3764 38.7859 52.538L44.8291 55.207C44.8291 53.6305 45.2993 52.0955 46.1566 50.7817C46.1566 50.7817 46.1566 50.7817 46.1566 50.7679L50.8031 42.8025C51.6743 41.4887 52.1445 39.9399 52.1445 38.3634V23.4559C52.1445 22.7368 51.5775 22.1283 50.8584 22.1283L50.8723 22.1145Z" fill="url(#paint5_linear_367_540)"/>
<path d="M1.48949 46.6464C1.3512 46.6464 1.21292 46.591 1.11611 46.4942C0.908683 46.2868 0.908683 45.9549 1.11611 45.7336L22.606 24.2436H41.2749L62.4468 3.07159C62.6542 2.86416 62.9861 2.86416 63.2074 3.07159C63.4148 3.27902 63.4148 3.61092 63.2074 3.83218L41.7174 25.3222H23.0486L1.86287 46.4942C1.75224 46.6049 1.62778 46.6464 1.48949 46.6464Z" fill="#A5CCE0"/>
<g opacity="0.7">
<path d="M62.8201 8.64441C62.5297 8.64441 62.2808 8.40932 62.2808 8.10508V3.97025H58.146C57.8555 3.97025 57.6066 3.73516 57.6066 3.43093C57.6066 3.12669 57.8417 2.8916 58.146 2.8916H62.8063C63.0967 2.8916 63.3456 3.12669 63.3456 3.43093V8.09126C63.3456 8.38166 63.1105 8.63058 62.8063 8.63058L62.8201 8.64441Z" fill="#A5CCE0"/>
</g>
</g>
<defs>
<linearGradient id="paint0_linear_367_540" x1="51.9916" y1="67.3123" x2="9.00402" y2="53.9492" gradientUnits="userSpaceOnUse">
<stop stop-color="#A5CCE0"/>
<stop offset="1" stop-color="#A5CCE0" stop-opacity="0"/>
</linearGradient>
<linearGradient id="paint1_linear_367_540" x1="39.1671" y1="15.8499" x2="43.5652" y2="16.2602" gradientUnits="userSpaceOnUse">
<stop stop-color="#A5CCE0"/>
<stop offset="1" stop-color="#A5CCE0" stop-opacity="0"/>
</linearGradient>
<linearGradient id="paint2_linear_367_540" x1="32.5" y1="17.199" x2="36.9" y2="17.599" gradientUnits="userSpaceOnUse">
<stop stop-color="#A5CCE0"/>
<stop offset="1" stop-color="#A5CCE0" stop-opacity="0"/>
</linearGradient>
<linearGradient id="paint3_linear_367_540" x1="26.5" y1="16.7988" x2="30.9" y2="17.1988" gradientUnits="userSpaceOnUse">
<stop stop-color="#A5CCE0"/>
<stop offset="1" stop-color="#A5CCE0" stop-opacity="0"/>
</linearGradient>
<linearGradient id="paint4_linear_367_540" x1="20.4983" y1="22.8419" x2="24.8594" y2="23.4148" gradientUnits="userSpaceOnUse">
<stop stop-color="#A5CCE0"/>
<stop offset="1" stop-color="#A5CCE0" stop-opacity="0"/>
</linearGradient>
<linearGradient id="paint5_linear_367_540" x1="35.3" y1="24.7994" x2="54.6174" y2="42.1129" gradientUnits="userSpaceOnUse">
<stop stop-color="#A5CCE0"/>
<stop offset="1" stop-color="#A5CCE0" stop-opacity="0"/>
</linearGradient>
<clipPath id="clip0_367_540">
<rect width="64" height="64" fill="white" transform="translate(0.5)"/>
</clipPath>
</defs>
</svg>
