<svg width="165" height="36" viewBox="0 0 165 36" fill="none" xmlns="http://www.w3.org/2000/svg">
<g clip-path="url(#clip0_4_5351)">
<path d="M18.0173 8.67047V6.099H15.4459V8.67047H12.8574V6.099H15.4459V3.52753H12.8574V0.956055H10.2859V8.67047H7.73145V6.099H5.15998V8.67047H0V26.7559L11.5801 35.7305L23.1603 26.7559V8.67047H18.0173ZM20.5888 11.2419V23.3841L18.0173 21.2043V11.2249H20.5888V11.2419ZM6.4372 23.5033L9.41738 26.0237L6.47126 28.51L3.38889 26.1258L6.42017 23.4862L6.4372 23.5033ZM16.7231 23.5033L19.7884 26.0918L16.6379 28.527L13.7429 26.0747L16.7231 23.5033ZM15.4288 11.2419V21.2213L12.8403 23.4692V11.2419H15.4288ZM10.2689 11.2419V23.3841L7.71442 21.2213V11.2419H10.2689ZM5.14295 11.2419V21.2213L2.57147 23.4522V11.2419H5.14295ZM8.54887 30.1448L11.5461 27.6074L14.5603 30.1619L11.5631 32.4949L8.54887 30.1448Z" fill="white"/>
<path d="M50.5269 12.4178L49.6584 14.5295C47.8022 13.6951 45.9459 13.2693 44.0897 13.2693C41.5353 13.2693 40.2581 13.8824 40.2581 15.1085C40.2581 16.0622 41.0755 16.6412 42.7274 16.8285L46.576 17.2883C49.5733 17.663 51.0719 19.0253 51.0719 21.4095C51.0719 24.2364 48.9432 25.6499 44.7028 25.6499C42.0802 25.6499 39.662 25.139 37.4311 24.1342L38.3337 21.9033C40.4624 22.9251 42.6252 23.436 44.7879 23.436C47.3083 23.436 48.5685 22.7889 48.5685 21.4946C48.5685 20.4899 47.7 19.8938 45.963 19.6725L42.1654 19.2127C40.7349 19.0424 39.645 18.6337 38.8957 17.9525C38.1294 17.2713 37.7547 16.3687 37.7547 15.2618C37.7547 13.9335 38.2996 12.9117 39.4066 12.1965C40.5135 11.4812 42.0973 11.1406 44.1578 11.1406C46.2184 11.1406 48.3812 11.5664 50.5099 12.4349L50.5269 12.4178Z" fill="white"/>
<path d="M57.0663 11.4131H59.5696V25.3774H57.0663V11.4131ZM67.0797 11.4131H70.2131L63.6567 17.8843L70.707 25.3603H67.3692L60.4552 17.9865L67.0797 11.4131Z" fill="white"/>
<path d="M74.4024 11.4131H77.4166L81.8444 17.5267L86.2891 11.4131H89.2011L83.0705 19.7746V25.3774H80.5671V19.7746L74.4024 11.4131Z" fill="white"/>
<path d="M119.054 11.1406C121.54 11.1406 123.567 11.8218 125.134 13.1672C126.7 14.5125 127.501 16.2495 127.501 18.3952C127.501 20.541 126.717 22.278 125.134 23.6233C123.55 24.9687 121.523 25.6328 119.054 25.6328C116.585 25.6328 114.524 24.9687 112.957 23.6233C111.408 22.261 110.624 20.5239 110.624 18.3952C110.624 16.2665 111.408 14.5125 112.957 13.1672C114.524 11.8048 116.551 11.1406 119.054 11.1406ZM119.037 23.4701C120.757 23.4701 122.171 22.9932 123.277 22.0566C124.384 21.12 124.929 19.8938 124.929 18.3952C124.929 16.8966 124.384 15.6535 123.277 14.7168C122.171 13.7802 120.757 13.3034 119.037 13.3034C117.317 13.3034 115.921 13.7802 114.814 14.7168C113.724 15.6535 113.179 16.8626 113.179 18.3952C113.179 19.9279 113.724 21.137 114.814 22.0736C115.904 23.0103 117.3 23.4701 119.037 23.4701Z" fill="white"/>
<path d="M133.478 11.4131H141.686C143.304 11.4131 144.564 11.8048 145.518 12.5711C146.455 13.3374 146.932 14.3762 146.932 15.6875C146.932 16.7604 146.608 17.6459 145.961 18.3612C145.314 19.0764 144.428 19.5362 143.287 19.7235L147.579 25.3774H144.462L140.46 19.996H135.999V17.7992H141.925C142.691 17.7992 143.304 17.6119 143.747 17.2372C144.19 16.8626 144.411 16.3517 144.411 15.7046C144.411 15.0574 144.19 14.5465 143.747 14.1549C143.304 13.7632 142.725 13.5758 141.976 13.5758H135.982V25.3774H133.478V11.4131Z" fill="white"/>
<path d="M151.393 11.4131H164.983V13.644H159.448V25.3774H156.945V13.644H151.41V11.4131H151.393Z" fill="white"/>
<path d="M94.1738 13.5928V25.3602H96.6772V19.8767H103.557L103.54 17.7139H96.6772V13.5928H94.1738Z" fill="white"/>
<path d="M106.043 11.4131H96.6772V13.6099H106.043V11.4131Z" fill="white"/>
</g>
<defs>
<clipPath id="clip0_4_5351">
<rect width="165" height="34.7745" fill="white" transform="translate(0 0.956055)"/>
</clipPath>
</defs>
</svg>
